# vtk DataFile Version 3.0
all-quad mesh
ASCII
DATASET UNSTRUCTURED_GRID
POINTS 507 float
-1.24 -1.24 0
-0.93 -1.24 0
-0.93 -1.085 0
-1.085 -1.085 0
-0.93 -0.93 0
-1.06130640933 -0.899337706196 0
-1.24 -0.93 0
-1.20191370276 -0.782141180733 0
-1.22095685138 -0.856070590367 0
-1.12580502802 -0.857869721732 0
-1.10095685138 -0.801070590367 0
-1.15065320467 -0.914668853098 0
-1.03065320467 -0.859668853098 0
-1 -0.82 0
-0.995653204667 -0.914668853098 0
-0.979661279753 -0.867334426549 0
-0.928669354839 -0.875 0
-0.927338709677 -0.82 0
-0.963669354839 -0.82 0
-1 -0.72 0
-1.11047842569 -0.710535295183 0
-1 -0.62 0
-1.12 -0.62 0
-1.24 -0.62 0
-1.22095685138 -0.701070590367 0
-0.924919354839 -0.72 0
-0.962459677419 -0.72 0
-0.9225 -0.62 0
-0.96125 -0.62 0
-0.96125 -0.465 0
-1 -0.465 0
-0.9225 -0.465 0
-0.9225 -0.31 0
-0.96125 -0.31 0
-1 -0.31 0
-1.12 -0.31 0
-1.12 -0.465 0
-1.24 -0.31 0
-1.24 -0.465 0
-0.96125 -0.155 0
-1 -0.155 0
-0.9225 -0.155 0
-0.9225 0 0
-0.96125 0 0
-1 0 0
-1.12 0 0
-1.12 -0.155 0
-1.24 -0 0
-1.24 -0.155 0
-0.96125 0.155 0
-1 0.155 0
-0.9225 0.155 0
-0.9225 0.31 0
-0.96125 0.31 0
-1 0.31 0
-1.12 0.31 0
-1.12 0.155 0
-1.24 0.31 0
-1.24 0.155 0
-0.96125 0.465 0
-1 0.465 0
-0.9225 0.465 0
-0.9225 0.62 0
-0.96125 0.62 0
-1 0.62 0
-1.12 0.62 0
-1.12 0.465 0
-1.24 0.62 0
-1.24 0.465 0
-1.06130640933 0.899337706196 0
-1.15065320467 0.914668853098 0
-1.12580502802 0.857869721732 0
-1.03065320467 0.859668853098 0
-1.24 0.93 0
-1.22095685138 0.856070590367 0
-1.20191370276 0.782141180733 0
-1.10095685138 0.801070590367 0
-1 0.82 0
-1.22095685138 0.701070590367 0
-1.11047842569 0.710535295183 0
-1 0.72 0
-0.963669354839 0.82 0
-0.979661279753 0.867334426549 0
-0.927338709677 0.82 0
-0.928669354839 0.875 0
-0.93 0.93 0
-0.995653204667 0.914668853098 0
-0.962459677419 0.72 0
-0.924919354839 0.72 0
-1.085 1.085 0
-1.24 1.24 0
-0.93 1.085 0
-0.93 1.24 0
-0.62 -1.24 0
-0.775 -1.085 0
-0.62 -0.93 0
-0.775 -0.93 0
-0.62 -0.82 0
-0.62 -0.72 0
-0.772459677419 -0.72 0
-0.773669354839 -0.82 0
-0.62 -0.62 0
-0.77125 -0.62 0
-0.774334677419 -0.875 0
-0.62 -0.875 0
-0.77125 -0.465 0
-0.62 -0.465 0
-0.62 -0.31 0
-0.77125 -0.31 0
-0.77125 -0.155 0
-0.584835657349 -0.171279788264 0
-0.62 0 0
-0.77125 0 0
-0.77125 0.155 0
-0.583473195025 0.167936576762 0
-0.62 0.31 0
-0.77125 0.31 0
-0.77125 0.465 0
-0.62 0.465 0
-0.62 0.62 0
-0.77125 0.62 0
-0.62 0.82 0
-0.62 0.875 0
-0.774334677419 0.875 0
-0.773669354839 0.82 0
-0.62 0.93 0
-0.775 0.93 0
-0.772459677419 0.72 0
-0.62 0.72 0
-0.775 1.085 0
-0.62 1.24 0
-0.31 -1.24 0
-0.31 -1.085 0
-0.465 -1.085 0
-0.31 -0.93 0
-0.465 -0.93 0
-0.31 -0.82 0
-0.31 -0.72 0
-0.465 -0.72 0
-0.465 -0.82 0
-0.31 -0.62 0
-0.465 -0.62 0
-0.465 -0.875 0
-0.31 -0.875 0
-0.472107639467 -0.480230656002 0
-0.286854135744 -0.485179897729 0
-0.33843055787 -0.370922624007 0
-0.444117443162 -0.324038631831 0
-0.327651942864 -0.29042909333 0
-0.308124080483 -0.14459712988 0
-0.333114140893 -0.142062153648 0
-0.338825971432 -0.285214546665 0
-0.288596218103 0.00123483357099 0
-0.327402310354 0.00109023936872 0
-0.366208402606 0.000945645166458 0
-0.358104201303 -0.139527177417 0
-0.35 -0.28 0
-0.602417828675 -0.240639894132 0
-0.499738275128 -0.271329605024 0
-0.467417828675 -0.225639894132 0
-0.532058721581 -0.317019315915 0
-0.397058721581 -0.302019315915 0
-0.391274000516 -0.347480627919 0
-0.365049985974 -0.316347587292 0
-0.333041250367 -0.330675858668 0
-0.480261014989 -0.112583535774 0
-0.493104201303 0.000472822583229 0
-0.602417828675 -0.0856398941322 0
-0.337600379032 0.126845423393 0
-0.373104201303 0.120472822583 0
-0.302096556761 0.133218024204 0
-0.315596895418 0.265201214836 0
-0.347798447709 0.252600607418 0
-0.38 0.24 0
-0.443845112341 0.300870903064 0
-0.53192255617 0.305435451532 0
-0.506829576841 0.254701869956 0
-0.41192255617 0.270435451532 0
-0.601736597513 0.238968288381 0
-0.481736597513 0.203968288381 0
-0.601736597513 0.083968288381 0
-0.487420399408 0.102220555482 0
-0.36580598522 0.287823153414 0
-0.31968941427 0.305210855296 0
-0.323781933122 0.345220495755 0
-0.383813522731 0.323045699409 0
-0.46844548328 0.473805123939 0
-0.316890966561 0.482610247878 0
-0.31 0.62 0
-0.465 0.62 0
-0.31 0.82 0
-0.31 0.875 0
-0.465 0.875 0
-0.465 0.82 0
-0.31 0.93 0
-0.465 0.93 0
-0.465 0.72 0
-0.31 0.72 0
-0.465 1.085 0
-0.31 1.085 0
-0.31 1.24 0
0 -1.24 0
-0.155 -1.085 0
0 -0.93 0
-0.155 -0.93 0
0 -0.82 0
0 -0.72 0
-0.155 -0.72 0
-0.155 -0.82 0
0 -0.62 0
-0.136987686414 -0.585690831265 0
-0.155 -0.875 0
0 -0.875 0
-5.55111512313e-17 -0.39875 0
-2.77555756156e-17 -0.354375 0
-0.0640451850161 -0.368966413659 0
-0.025 -0.409375 0
-0 -0.31 0
-0.103090370032 -0.328557827318 0
-0.206180740065 -0.347115654637 0
-0.128090370032 -0.383557827318 0
-0.05 -0.42 0
-0.298427067872 -0.552589948864 0
-0.19596045554 -0.527717682248 0
-0.168427067872 -0.452589948864 0
-0.223493843207 -0.602845415633 0
-0.0934938432071 -0.502845415633 0
-0.0684938432071 -0.602845415633 0
-0.0467469216035 -0.506110207816 0
-2.77555756156e-17 -0.509375 0
-0.22036635842 -0.405804544093 0
-0.272305648967 -0.359019139322 0
-0.312642346807 -0.428051260868 0
-0.154838962137 -0.166163274541 0
-0.266916341464 -0.318772373983 0
0 -0.155 0
0 0 0
-0.144298109051 0.000617416785494 0
-0.290754413599 -0.336155790658 0
-0.16112295082 0.325647540984 0
-0.242452441971 0.335434018369 0
-0.266833926453 0.312023083858 0
-0.238359923119 0.29542437791 0
-0.147990060014 0.156329463777 0
0.000768015741101 0.153037293106 0
0.0015360314822 0.306074586212 0
-0.0797934596687 0.315861063598 0
-0.0528191046864 0.340286599609 0
-0.0799966727706 0.357392606307 0
0.00133281838029 0.347606128921 0
0.00112960527837 0.389137671631 0
0.000564802639186 0.504568835815 0
-0.16257072943 0.481555600049 0
-0 0.62 0
-0.155 0.62 0
0 0.82 0
0 0.875 0
-0.155 0.875 0
-0.155 0.82 0
0 0.93 0
-0.155 0.93 0
-0.155 0.72 0
0 0.72 0
-0.155 1.085 0
0 1.24 0
0.31 -1.24 0
0.31 -1.085 0
0.155 -1.085 0
0.31 -0.93 0
0.155 -0.93 0
0.31 -0.82 0
0.31 -0.72 0
0.155 -0.72 0
0.155 -0.82 0
0.31 -0.62 0
0.155 -0.62 0
0.155 -0.875 0
0.31 -0.875 0
0.1666815345 -0.327910347838 0
0.0833407672499 -0.318955173919 0
0.0555605114999 -0.345553449279 0
0.0833407672499 -0.363330173919 0
0.164311434012 -0.483308443114 0
0.317417155081 -0.482452129602 0
0.324834310161 -0.344904259203 0
0.245757922331 -0.33640730352 0
0.270931117837 -0.311673888593 0
0.243979521675 -0.295058703288 0
0.323055909506 -0.303555658971 0
0.321277508851 -0.262207058738 0
0.315638754425 -0.131103529369 0
0.154171893991 -0.155280093832 0
0.31 -0 0
0.155 0 0
0.324638190867 0.247314218212 0
0.32733300583 0.292843482168 0
0.288911709053 0.304153902112 0
0.268353653183 0.287044480106 0
0.330027820793 0.338372746124 0
0.271048468146 0.332573744062 0
0.212069115498 0.326774742001 0
0.10680257349 0.316424664107 0
0.15613023807 0.154952667666 0
0.317319095433 0.123657109106 0
0.0736836880647 0.360496749961 0
0.0405648026392 0.404568835815 0
0.146034557749 0.373387371001 0
0.08 0.42 0
0.282390944432 0.469908715381 0
0.296195472216 0.544954357691 0
0.203446227768 0.523406489938 0
0.181195472216 0.444954357691 0
0.31 0.62 0
0.225696983319 0.601858622185 0
0.141393966638 0.583717244369 0
0.110696983319 0.501858622185 0
0.0706969833192 0.601858622185 0
0.0556308929792 0.503213729 0
0.226121970181 0.388764050876 0
0.306209382613 0.404140730752 0
0.31 0.82 0
0.31 0.875 0
0.155 0.875 0
0.155 0.82 0
0.31 0.93 0
0.155 0.93 0
0.155 0.72 0
0.31 0.72 0
0.155 1.085 0
0.31 1.085 0
0.31 1.24 0
0.62 -1.24 0
0.465 -1.085 0
0.62 -0.93 0
0.465 -0.93 0
0.62 -0.82 0
0.62 -0.72 0
0.465 -0.72 0
0.465 -0.82 0
0.62 -0.62 0
0.465 -0.62 0
0.465 -0.875 0
0.62 -0.875 0
0.46870857754 -0.473726064801 0
0.62 -0.465 0
0.62 -0.31 0
0.4396708991 -0.306733895621 0
0.390697674419 0 0
0.350348837209 0 0
0.342993795817 -0.128051764685 0
0.370348837209 -0.125 0
0.335638754425 -0.256103529369 0
0.35 -0.25 0
0.52983544955 -0.308366947811 0
0.498279385989 -0.25864881533 0
0.39483544955 -0.278366947811 0
0.601723322428 -0.23893068285 0
0.583446644855 -0.167861365699 0
0.466723322428 -0.20893068285 0
0.601723322428 -0.0839306828496 0
0.486036079818 -0.104465341425 0
0.62 -0 0
0.505348837209 0 0
0.358945679528 -0.290961303391 0
0.382252604631 -0.325819077412 0
0.361333966321 0.106828554553 0
0.372319095433 0.213657109106 0
0.405348837209 0.09 0
0.42 0.18 0
0.581549232277 0.159806345965 0
0.600774616139 0.234903172983 0
0.520687379761 0.234447122145 0
0.500774616139 0.169903172983 0
0.62 0.31 0
0.540600143384 0.298991071307 0
0.461200286768 0.287982142615 0
0.440600143384 0.233991071307 0
0.395614053781 0.313177444369 0
0.383966574607 0.263417276737 0
0.503061726674 0.0849515864913 0
0.600774616139 0.0799031729827 0
0.470006955198 0.472093186531 0
0.62 0.465 0
0.62 0.62 0
0.465 0.62 0
0.62 0.82 0
0.62 0.875 0
0.465 0.875 0
0.465 0.82 0
0.62 0.93 0
0.465 0.93 0
0.465 0.72 0
0.62 0.72 0
0.465 1.085 0
0.62 1.24 0
0.93 -1.24 0
0.93 -1.085 0
0.775 -1.085 0
0.93 -0.93 0
0.775 -0.93 0
0.927338709677 -0.82 0
0.924919354839 -0.72 0
0.772459677419 -0.72 0
0.773669354839 -0.82 0
0.9225 -0.62 0
0.77125 -0.62 0
0.774334677419 -0.875 0
0.928669354839 -0.875 0
0.77125 -0.465 0
0.9225 -0.465 0
0.9225 -0.31 0
0.77125 -0.31 0
0.77125 -0.155 0
0.9225 -0.155 0
0.9225 0 0
0.77125 0 0
0.77125 0.155 0
0.9225 0.155 0
0.9225 0.31 0
0.77125 0.31 0
0.77125 0.465 0
0.9225 0.465 0
0.9225 0.62 0
0.77125 0.62 0
0.927338709677 0.82 0
0.928669354839 0.875 0
0.774334677419 0.875 0
0.773669354839 0.82 0
0.93 0.93 0
0.775 0.93 0
0.772459677419 0.72 0
0.924919354839 0.72 0
0.775 1.085 0
0.93 1.085 0
0.93 1.24 0
1.24 -1.24 0
1.085 -1.085 0
1.24 -0.93 0
1.06130640933 -0.899337706196 0
1.15065320467 -0.914668853098 0
1.12580502802 -0.857869721732 0
1.03065320467 -0.859668853098 0
1.22095685138 -0.856070590367 0
1.20191370276 -0.782141180733 0
1.10095685138 -0.801070590367 0
1 -0.82 0
1.22095685138 -0.701070590367 0
1.11047842569 -0.710535295183 0
1.24 -0.62 0
1.12 -0.62 0
1 -0.62 0
1 -0.72 0
0.963669354839 -0.82 0
0.979661279753 -0.867334426549 0
0.995653204667 -0.914668853098 0
0.96125 -0.62 0
0.962459677419 -0.72 0
1.12 -0.465 0
1 -0.465 0
1.24 -0.465 0
1.24 -0.31 0
1.12 -0.31 0
1 -0.31 0
0.96125 -0.31 0
0.96125 -0.465 0
1.12 -0.155 0
1 -0.155 0
1.24 -0.155 0
1.24 -0 0
1.12 0 0
1 0 0
0.96125 0 0
0.96125 -0.155 0
1.12 0.155 0
1 0.155 0
1.24 0.155 0
1.24 0.31 0
1.12 0.31 0
1 0.31 0
0.96125 0.31 0
0.96125 0.155 0
1.12 0.465 0
1 0.465 0
1.24 0.465 0
1.24 0.62 0
1.12 0.62 0
1 0.62 0
0.96125 0.62 0
0.96125 0.465 0
1.20191370276 0.782141180733 0
1.22095685138 0.856070590367 0
1.12580502802 0.857869721732 0
1.10095685138 0.801070590367 0
1.24 0.93 0
1.15065320467 0.914668853098 0
1.06130640933 0.899337706196 0
1.03065320467 0.859668853098 0
1 0.82 0
0.995653204667 0.914668853098 0
0.979661279753 0.867334426549 0
0.963669354839 0.82 0
1 0.72 0
1.11047842569 0.710535295183 0
1.22095685138 0.701070590367 0
0.962459677419 0.72 0
1.085 1.085 0
1.24 1.24 0
CELLS 464 2320
4 0 1 2 3
4 3 2 4 5
4 0 3 5 6
4 7 8 9 10
4 6 11 9 8
4 5 12 9 11
4 13 10 9 12
4 5 14 15 12
4 4 16 15 14
4 17 18 15 16
4 13 12 15 18
4 13 19 20 10
4 21 22 20 19
4 23 24 20 22
4 7 10 20 24
4 17 25 26 18
4 27 28 26 25
4 21 19 26 28
4 13 18 26 19
4 21 28 29 30
4 27 31 29 28
4 32 33 29 31
4 34 30 29 33
4 34 35 36 30
4 37 38 36 35
4 23 22 36 38
4 21 30 36 22
4 34 33 39 40
4 32 41 39 33
4 42 43 39 41
4 44 40 39 43
4 44 45 46 40
4 47 48 46 45
4 37 35 46 48
4 34 40 46 35
4 44 43 49 50
4 42 51 49 43
4 52 53 49 51
4 54 50 49 53
4 54 55 56 50
4 57 58 56 55
4 47 45 56 58
4 44 50 56 45
4 54 53 59 60
4 52 61 59 53
4 62 63 59 61
4 64 60 59 63
4 64 65 66 60
4 67 68 66 65
4 57 55 66 68
4 54 60 66 55
4 69 70 71 72
4 73 74 71 70
4 75 76 71 74
4 77 72 71 76
4 75 78 79 76
4 67 65 79 78
4 64 80 79 65
4 77 76 79 80
4 77 81 82 72
4 83 84 82 81
4 85 86 82 84
4 69 72 82 86
4 64 63 87 80
4 62 88 87 63
4 83 81 87 88
4 77 80 87 81
4 73 69 89 90
4 69 85 91 89
4 89 91 92 90
4 1 93 94 2
4 93 95 96 94
4 94 96 4 2
4 97 98 99 100
4 101 102 99 98
4 27 25 99 102
4 17 100 99 25
4 17 16 103 100
4 4 96 103 16
4 95 104 103 96
4 97 100 103 104
4 27 102 105 31
4 102 101 106 105
4 105 106 107 108
4 31 105 108 32
4 32 108 109 41
4 108 107 110 109
4 109 110 111 112
4 41 109 112 42
4 42 112 113 51
4 112 111 114 113
4 113 114 115 116
4 51 113 116 52
4 52 116 117 61
4 116 115 118 117
4 117 118 119 120
4 61 117 120 62
4 121 122 123 124
4 125 126 123 122
4 85 84 123 126
4 83 124 123 84
4 83 88 127 124
4 62 120 127 88
4 119 128 127 120
4 121 124 127 128
4 85 126 129 91
4 126 125 130 129
4 91 129 130 92
4 93 131 132 133
4 133 132 134 135
4 93 133 135 95
4 136 137 138 139
4 140 141 138 137
4 101 98 138 141
4 97 139 138 98
4 97 104 142 139
4 95 135 142 104
4 134 143 142 135
4 136 139 142 143
4 101 141 144 106
4 141 140 145 144
4 144 145 146 147
4 106 144 147 107
4 148 149 150 151
4 152 153 150 149
4 154 155 150 153
4 156 151 150 155
4 110 157 158 159
4 107 160 158 157
4 147 161 158 160
4 156 159 158 161
4 147 162 163 161
4 146 164 163 162
4 148 151 163 164
4 156 161 163 151
4 156 155 165 159
4 154 166 165 155
4 111 167 165 166
4 110 159 165 167
4 154 153 168 169
4 152 170 168 153
4 171 172 168 170
4 173 169 168 172
4 174 175 176 177
4 115 178 176 175
4 114 179 176 178
4 173 177 176 179
4 114 180 181 179
4 111 166 181 180
4 154 169 181 166
4 173 179 181 169
4 173 172 182 177
4 171 183 182 172
4 184 185 182 183
4 174 177 182 185
4 115 174 186 118
4 174 184 187 186
4 186 187 188 189
4 118 186 189 119
4 190 191 192 193
4 194 195 192 191
4 125 122 192 195
4 121 193 192 122
4 121 128 196 193
4 119 189 196 128
4 188 197 196 189
4 190 193 196 197
4 125 195 198 130
4 195 194 199 198
4 198 199 200 130
4 131 201 202 132
4 201 203 204 202
4 202 204 134 132
4 205 206 207 208
4 209 210 207 206
4 140 137 207 210
4 136 208 207 137
4 136 143 211 208
4 134 204 211 143
4 203 212 211 204
4 205 208 211 212
4 213 214 215 216
4 217 218 215 214
4 219 220 215 218
4 221 216 215 220
4 145 222 223 224
4 140 225 223 222
4 210 226 223 225
4 221 224 223 226
4 210 227 228 226
4 209 229 228 227
4 213 216 228 229
4 221 226 228 216
4 221 220 230 224
4 219 231 230 220
4 146 232 230 231
4 145 224 230 232
4 219 218 233 234
4 217 235 233 218
4 236 237 233 235
4 152 149 233 237
4 148 234 233 149
4 148 164 238 234
4 146 231 238 164
4 219 234 238 231
4 239 240 241 242
4 184 183 241 240
4 171 242 241 183
4 171 170 243 242
4 152 237 243 170
4 236 244 243 237
4 245 246 243 244
4 239 242 243 246
4 239 246 247 248
4 245 249 247 246
4 250 248 247 249
4 250 251 252 248
4 253 254 252 251
4 188 187 252 254
4 184 240 252 187
4 239 248 252 240
4 255 256 257 258
4 259 260 257 256
4 194 191 257 260
4 190 258 257 191
4 190 197 261 258
4 188 254 261 197
4 253 262 261 254
4 255 258 261 262
4 194 260 263 199
4 260 259 264 263
4 199 263 264 200
4 201 265 266 267
4 267 266 268 269
4 201 267 269 203
4 270 271 272 273
4 274 275 272 271
4 209 206 272 275
4 205 273 272 206
4 205 212 276 273
4 203 269 276 212
4 268 277 276 269
4 270 273 276 277
4 278 279 280 281
4 217 214 280 279
4 213 281 280 214
4 213 229 282 281
4 209 275 282 229
4 274 283 282 275
4 284 285 282 283
4 278 281 282 285
4 278 285 286 287
4 284 288 286 285
4 289 287 286 288
4 289 290 291 287
4 292 293 291 290
4 236 235 291 293
4 217 279 291 235
4 278 287 291 279
4 294 295 296 297
4 298 299 296 295
4 300 297 296 299
4 300 301 302 297
4 245 244 302 301
4 236 293 302 244
4 292 303 302 293
4 294 297 302 303
4 250 249 304 305
4 245 301 304 249
4 300 306 304 301
4 307 305 304 306
4 308 309 310 311
4 312 313 310 309
4 314 315 310 313
4 307 311 310 315
4 314 316 317 315
4 253 251 317 316
4 250 305 317 251
4 307 315 317 305
4 307 306 318 311
4 300 299 318 306
4 298 319 318 299
4 308 311 318 319
4 320 321 322 323
4 324 325 322 321
4 259 256 322 325
4 255 323 322 256
4 255 262 326 323
4 253 314 326 262
4 312 327 326 314
4 320 323 326 327
4 259 325 328 264
4 325 324 329 328
4 328 329 330 264
4 265 331 332 266
4 331 333 334 332
4 332 334 268 266
4 335 336 337 338
4 339 340 337 336
4 274 271 337 340
4 270 338 337 271
4 270 277 341 338
4 268 334 341 277
4 333 342 341 334
4 335 338 341 342
4 274 340 343 283
4 340 339 344 343
4 343 344 345 346
4 283 343 346 284
4 347 348 349 350
4 292 290 349 348
4 289 351 349 290
4 352 350 349 351
4 346 353 354 355
4 345 356 354 353
4 357 358 354 356
4 352 355 354 358
4 357 359 360 358
4 361 362 360 359
4 347 350 360 362
4 352 358 360 350
4 352 351 363 355
4 289 288 363 351
4 284 364 363 288
4 346 355 363 364
4 294 303 365 366
4 292 348 365 303
4 347 367 365 348
4 368 366 365 367
4 369 370 371 372
4 373 374 371 370
4 375 376 371 374
4 368 372 371 376
4 375 377 378 376
4 298 295 378 377
4 294 366 378 295
4 368 376 378 366
4 368 367 379 372
4 347 362 379 367
4 361 380 379 362
4 369 372 379 380
4 298 375 381 308
4 375 373 382 381
4 381 382 383 384
4 308 381 384 312
4 385 386 387 388
4 389 390 387 386
4 324 321 387 390
4 320 388 387 321
4 320 327 391 388
4 312 384 391 327
4 383 392 391 384
4 385 388 391 392
4 324 390 393 329
4 390 389 394 393
4 329 393 394 330
4 331 395 396 397
4 397 396 398 399
4 331 397 399 333
4 400 401 402 403
4 404 405 402 401
4 339 336 402 405
4 335 403 402 336
4 335 342 406 403
4 333 399 406 342
4 398 407 406 399
4 400 403 406 407
4 339 405 408 344
4 405 404 409 408
4 408 409 410 411
4 344 408 411 345
4 345 411 412 357
4 411 410 413 412
4 412 413 414 415
4 357 412 415 361
4 361 415 416 369
4 415 414 417 416
4 416 417 418 419
4 369 416 419 373
4 373 419 420 382
4 419 418 421 420
4 420 421 422 423
4 382 420 423 383
4 424 425 426 427
4 428 429 426 425
4 389 386 426 429
4 385 427 426 386
4 385 392 430 427
4 383 423 430 392
4 422 431 430 423
4 424 427 430 431
4 389 429 432 394
4 429 428 433 432
4 432 433 434 394
4 395 435 436 396
4 435 437 438 436
4 436 438 398 396
4 438 439 440 441
4 437 442 440 439
4 443 444 440 442
4 445 441 440 444
4 443 446 447 444
4 448 449 447 446
4 450 451 447 449
4 445 444 447 451
4 445 452 453 441
4 400 407 453 452
4 398 454 453 407
4 438 441 453 454
4 450 455 456 451
4 404 401 456 455
4 400 452 456 401
4 445 451 456 452
4 450 449 457 458
4 448 459 457 449
4 460 461 457 459
4 462 458 457 461
4 462 463 464 458
4 410 409 464 463
4 404 455 464 409
4 450 458 464 455
4 462 461 465 466
4 460 467 465 461
4 468 469 465 467
4 470 466 465 469
4 470 471 472 466
4 414 413 472 471
4 410 463 472 413
4 462 466 472 463
4 470 469 473 474
4 468 475 473 469
4 476 477 473 475
4 478 474 473 477
4 478 479 480 474
4 418 417 480 479
4 414 471 480 417
4 470 474 480 471
4 478 477 481 482
4 476 483 481 477
4 484 485 481 483
4 486 482 481 485
4 486 487 488 482
4 422 421 488 487
4 418 479 488 421
4 478 482 488 479
4 489 490 491 492
4 493 494 491 490
4 495 496 491 494
4 497 492 491 496
4 495 498 499 496
4 428 425 499 498
4 424 500 499 425
4 497 496 499 500
4 497 501 502 492
4 486 485 502 501
4 484 503 502 485
4 489 492 502 503
4 424 431 504 500
4 422 487 504 431
4 486 501 504 487
4 497 500 504 501
4 428 495 505 433
4 495 493 506 505
4 433 505 506 434
CELL_TYPES 464
9
9
9
9
9
9
9
9
9
9
9
9
9
9
9
9
9
9
9
9
9
9
9
9
9
9
9
9
9
9
9
9
9
9
9
9
9
9
9
9
9
9
9
9
9
9
9
9
9
9
9
9
9
9
9
9
9
9
9
9
9
9
9
9
9
9
9
9
9
9
9
9
9
9
9
9
9
9
9
9
9
9
9
9
9
9
9
9
9
9
9
9
9
9
9
9
9
9
9
9
9
9
9
9
9
9
9
9
9
9
9
9
9
9
9
9
9
9
9
9
9
9
9
9
9
9
9
9
9
9
9
9
9
9
9
9
9
9
9
9
9
9
9
9
9
9
9
9
9
9
9
9
9
9
9
9
9
9
9
9
9
9
9
9
9
9
9
9
9
9
9
9
9
9
9
9
9
9
9
9
9
9
9
9
9
9
9
9
9
9
9
9
9
9
9
9
9
9
9
9
9
9
9
9
9
9
9
9
9
9
9
9
9
9
9
9
9
9
9
9
9
9
9
9
9
9
9
9
9
9
9
9
9
9
9
9
9
9
9
9
9
9
9
9
9
9
9
9
9
9
9
9
9
9
9
9
9
9
9
9
9
9
9
9
9
9
9
9
9
9
9
9
9
9
9
9
9
9
9
9
9
9
9
9
9
9
9
9
9
9
9
9
9
9
9
9
9
9
9
9
9
9
9
9
9
9
9
9
9
9
9
9
9
9
9
9
9
9
9
9
9
9
9
9
9
9
9
9
9
9
9
9
9
9
9
9
9
9
9
9
9
9
9
9
9
9
9
9
9
9
9
9
9
9
9
9
9
9
9
9
9
9
9
9
9
9
9
9
9
9
9
9
9
9
9
9
9
9
9
9
9
9
9
9
9
9
9
9
9
9
9
9
9
9
9
9
9
9
9
9
9
9
9
9
9
9
9
9
9
9
9
9
9
9
9
9
9
9
9
9
9
9
9
9
9
9
9
9
9
9
9
9
9
9
9
9
9
9
9
9
9
9
9
9
9
9
9
9
9
9
9
9
9
9
9
9
9
9
9
9
9
9
9
9
CELL_DATA 464
SCALARS region int 1
LOOKUP_TABLE default
1
1
1
1
1
1
1
1
1
1
1
1
1
1
1
-1
-1
-1
-1
-1
-1
-1
-1
1
1
1
1
-1
-1
-1
-1
1
1
1
1
-1
-1
-1
-1
1
1
1
1
-1
-1
-1
-1
1
1
1
1
1
1
1
1
1
1
1
1
1
1
1
1
-1
-1
-1
-1
1
1
1
1
1
1
-1
-1
-1
-1
1
1
1
1
-1
-1
-1
-1
-1
-1
-1
-1
-1
-1
-1
-1
-1
-1
-1
-1
1
1
1
1
-1
-1
-1
-1
1
1
1
1
1
1
-1
-1
-1
-1
1
1
1
1
-1
-1
-1
-1
1
1
1
1
-1
-1
-1
-1
-1
-1
-1
-1
-1
-1
-1
-1
1
1
1
1
-1
-1
-1
-1
-1
-1
-1
-1
-1
-1
-1
-1
-1
-1
-1
-1
1
1
1
1
-1
-1
-1
-1
1
1
1
1
1
1
-1
-1
-1
-1
1
1
1
1
1
1
1
1
-1
-1
-1
-1
-1
-1
-1
-1
-1
-1
-1
-1
1
1
1
1
1
-1
-1
-1
-1
-1
-1
1
1
1
1
1
1
1
1
-1
-1
-1
-1
-1
1
1
1
1
-1
-1
-1
-1
1
1
1
1
1
1
-1
-1
-1
-1
1
1
1
1
1
1
1
-1
-1
-1
-1
-1
-1
-1
-1
1
1
1
1
1
-1
-1
-1
1
1
1
1
1
1
1
1
1
-1
-1
-1
-1
-1
-1
-1
-1
-1
-1
-1
-1
1
1
1
1
-1
-1
-1
-1
1
1
1
1
1
1
-1
-1
-1
-1
1
1
1
1
-1
-1
-1
-1
1
1
1
1
-1
-1
-1
-1
-1
-1
-1
-1
-1
-1
-1
-1
1
1
1
1
-1
-1
-1
-1
-1
-1
-1
-1
-1
-1
-1
-1
-1
-1
-1
-1
1
1
1
1
-1
-1
-1
-1
1
1
1
1
1
1
-1
-1
-1
-1
1
1
1
1
-1
-1
-1
-1
-1
-1
-1
-1
-1
-1
-1
-1
-1
-1
-1
-1
1
1
1
1
-1
-1
-1
-1
1
1
1
1
1
1
1
1
1
1
1
1
1
1
1
1
1
1
-1
-1
-1
-1
1
1
1
1
-1
-1
-1
-1
1
1
1
1
-1
-1
-1
-1
1
1
1
1
-1
-1
-1
-1
1
1
1
1
-1
-1
-1
-1
1
1
1
1
1
1
1
1
1
1
1
1
-1
-1
-1
-1
1
1
1
