# all-quad mesh
v -1.2116 -1.1666 0
v -0.91245 -1.1666 0
v -0.91245 -1.017025 0
v -1.062025 -1.017025 0
v -0.91245 -0.86745 0
v -1.062025 -0.86745 0
v -1.2116 -0.86745 0
v -1.2116 0.32915 0
v -1.062025 0.32915 0
v -1.062025 0.478725 0
v -1.2116 0.6283 0
v -0.91245 0.32915 0
v -0.91245 0.478725 0
v -0.91245 0.6283 0
v -0.91245 0.777875 0
v -1.062025 0.777875 0
v -0.91245 0.92745 0
v -1.062025 0.92745 0
v -1.2116 0.92745 0
v -1.062025 1.077025 0
v -1.2116 1.2266 0
v -0.91245 1.077025 0
v -0.91245 1.2266 0
v -0.762875 0.92745 0
v -0.762875 1.077025 0
v -0.6133 0.92745 0
v -0.6133 1.2266 0
v -0.463725 0.92745 0
v -0.463725 1.077025 0
v -0.31415 0.92745 0
v -0.31415 1.077025 0
v -0.31415 1.2266 0
v -0.31415 -0.26915 0
v -0.164575 -0.26915 0
v -0.164575 -0.119575 0
v -0.31415 -0.119575 0
v -0.015 -0.26915 0
v -0.015 -0.119575 0
v -0.015 0.03 0
v -0.164575 0.03 0
v -0.31415 0.03 0
v 0.134575 -0.26915 0
v 0.134575 -0.119575 0
v 0.28415 -0.26915 0
v 0.28415 -0.119575 0
v 0.28415 0.03 0
v 0.134575 0.03 0
v 0.28415 -1.1666 0
v 0.433725 -1.1666 0
v 0.433725 -1.017025 0
v 0.28415 -1.017025 0
v 0.5833 -1.1666 0
v 0.5833 -1.017025 0
v 0.5833 -0.86745 0
v 0.433725 -0.86745 0
v 0.28415 -0.86745 0
v 0.5833 0.6283 0
v 0.732875 0.6283 0
v 0.732875 0.777875 0
v 0.5833 0.777875 0
v 0.88245 0.6283 0
v 0.88245 0.92745 0
v 0.5833 0.92745 0
v 0.732875 1.077025 0
v 0.5833 1.077025 0
v 0.88245 1.2266 0
v 0.732875 1.2266 0
v 0.5833 1.2266 0
v 1.032025 0.6283 0
v 1.032025 0.777875 0
v 1.1816 0.6283 0
v 1.1816 0.777875 0
v 1.1816 0.92745 0
v 1.1816 1.2266 0
v -1.062025 -0.7926625 0
v -1.1368125 -0.7926625 0
v -1.062025 -0.717875 0
v -1.1368125 -0.717875 0
v -1.2116 -0.717875 0
v -1.1368125 -0.6430875 0
v -1.2116 -0.5683 0
v -1.04336361789 -0.644239000146 0
v -1.062025 -0.5683 0
v -1.062025 -0.4935125 0
v -1.1368125 -0.4935125 0
v -1.062025 -0.418725 0
v -1.1368125 -0.418725 0
v -1.2116 -0.418725 0
v -1.1368125 -0.3439375 0
v -1.2116 -0.26915 0
v -1.062025 -0.3439375 0
v -1.062025 -0.26915 0
v -1.0481731575 -0.181804650101 0
v -1.1368125 -0.1943625 0
v -1.062025 -0.119575 0
v -1.1368125 -0.119575 0
v -1.2116 -0.119575 0
v -1.1368125 -0.0447875 0
v -1.2116 0.03 0
v -1.062025 -0.0447875 0
v -1.062025 0.03 0
v -1.062025 0.179575 0
v -1.2116 0.179575 0
v -0.9872375 -0.7926625 0
v -0.91245 -0.717875 0
v -0.978244513138 -0.701482949425 0
v -1.05269430895 -0.681057000073 0
v -1.00840828276 -0.678399237393 0
v -0.996681808946 -0.647119500073 0
v -1.02013475657 -0.709678974712 0
v -0.964122256569 -0.675741474712 0
v -0.95 -0.65 0
v -0.945347256569 -0.709678974712 0
v -0.938286128284 -0.682499279023 0
v -0.91245 -0.689257083333 0
v -0.91245 -0.660639166667 0
v -0.931225 -0.655319583333 0
v -0.952312264151 -0.60915 0
v -1.00250328655 -0.607709750036 0
v -0.954624528302 -0.5683 0
v -1.00832476415 -0.5683 0
v -1.05269430895 -0.606269500073 0
v -0.91245 -0.614469583333 0
v -0.932381132075 -0.611809791667 0
v -0.91245 -0.5683 0
v -0.933537264151 -0.5683 0
v -0.935653891509 -0.4935125 0
v -0.958857783019 -0.4935125 0
v -0.91245 -0.4935125 0
v -0.91245 -0.418725 0
v -0.937770518868 -0.418725 0
v -0.963091037736 -0.418725 0
v -1.01255801887 -0.418725 0
v -1.01044139151 -0.4935125 0
v -0.939887146226 -0.3439375 0
v -0.967324292453 -0.3439375 0
v -0.91245 -0.3439375 0
v -0.91245 -0.26915 0
v -0.942003773585 -0.26915 0
v -0.97155754717 -0.26915 0
v -1.01679127358 -0.26915 0
v -1.01467464623 -0.3439375 0
v -0.943714216727 -0.195356247942 0
v -0.975751205106 -0.195062043132 0
v -0.924208813017 -0.181774843918 0
v -0.910904456698 -0.122150905503 0
v -0.94542465987 -0.121562495884 0
v -0.979944863042 -0.120974086265 0
v -1.02098493152 -0.120274543132 0
v -1.01888810255 -0.194712271566 0
v -0.9872375 0.03 0
v -1.02463125 0.03 0
v -1.022821875 -0.026196875 0
v -0.98361875 -0.045 0
v -1.062025 -0.00739375 0
v -1.0210125 -0.08239375 0
v -0.98 -0.12 0
v -1.062025 -0.08218125 0
v -1.02099871576 -0.101334146566 0
v -0.979972431521 -0.120487043132 0
v -0.945672372028 -0.0994034232168 0
v -0.947758061014 -0.0347017116084 0
v -0.911344744056 -0.0788068464337 0
v -0.911897372028 -0.0244034232168 0
v -0.91245 0.03 0
v -0.94984375 0.03 0
v -0.945548515949 -0.11048295955 0
v -0.911124600377 -0.100478875968 0
v -0.9872375 0.1047875 0
v -0.91245 0.1047875 0
v -0.91245 0.179575 0
v -0.762875 -1.1666 0
v -0.762875 -1.017025 0
v -0.762875 -0.86745 0
v -0.766023580814 -0.803775138168 0
v -0.839236790407 -0.798218819084 0
v -0.769172161629 -0.740100276336 0
v -0.840811080814 -0.728987638168 0
v -0.767762221378 -0.701634037276 0
v -0.765318610689 -0.634967018638 0
v -0.838884305345 -0.624718300986 0
v -0.840106110689 -0.681136601971 0
v -0.762875 -0.5683 0
v -0.8376625 -0.5683 0
v -0.840458595752 -0.70506212007 0
v -0.768467191504 -0.720867156806 0
v -0.8376625 -0.4935125 0
v -0.762875 -0.418725 0
v -0.8376625 -0.3439375 0
v -0.762875 -0.26915 0
v -0.8376625 -0.26915 0
v -0.837276114175 -0.195006476376 0
v -0.762875 -0.1943625 0
v -0.762875 -0.119575 0
v -0.836889728349 -0.120862952751 0
v -0.770762737876 0.00554235727427 0
v -0.772087228824 0.0265517784473 0
v -0.841992300426 0.00107417761522 0
v -0.841053740966 -0.0366322445797 0
v -0.773411719772 0.0475611996203 0
v -0.842930859886 0.0387805998101 0
v -0.838971734658 -0.0787475986655 0
v -0.766818868938 -0.0570163213629 0
v -0.840296679943 0.109177799905 0
v -0.768143359886 0.11356809981 0
v -0.762875 0.179575 0
v -0.8376625 0.179575 0
v -0.8376625 0.2543625 0
v -0.762875 0.2543625 0
v -0.762875 0.32915 0
v -0.762875 0.4039375 0
v -0.8376625 0.4039375 0
v -0.762875 0.478725 0
v -0.8376625 0.478725 0
v -0.8376625 0.5535125 0
v -0.762875 0.5535125 0
v -0.762875 0.6283 0
v -0.748705843244 0.715286193848 0
v -0.8376625 0.7030875 0
v -0.762875 0.777875 0
v -0.8376625 0.777875 0
v -0.8376625 0.8526625 0
v -0.762875 0.8526625 0
v -0.6133 -1.1666 0
v -0.6133 -1.017025 0
v -0.6133 -0.9422375 0
v -0.6880875 -0.9422375 0
v -0.6133 -0.86745 0
v -0.6880875 -0.86745 0
v -0.611043644654 -0.746037634015 0
v -0.610684391551 -0.726706561328 0
v -0.643931022146 -0.725717001715 0
v -0.650396147346 -0.734887758252 0
v -0.610325138448 -0.707375488642 0
v -0.658033147206 -0.699705907508 0
v -0.689748650039 -0.723737882489 0
v -0.726355049444 -0.746992565082 0
v -0.693858562598 -0.793696814922 0
v -0.612171822327 -0.806743817007 0
v -0.687313827083 -0.656941315572 0
v -0.728755435708 -0.712685959883 0
v -0.611812569224 -0.637837744321 0
v -0.6133 -0.5683 0
v -0.6880875 -0.5683 0
v -0.737520114788 -0.722856447174 0
v -0.6880875 -0.4935125 0
v -0.6133 -0.4935125 0
v -0.6133 -0.418725 0
v -0.6133 -0.26915 0
v -0.6880875 -0.1943625 0
v -0.6133 -0.119575 0
v -0.6880875 -0.119575 0
v -0.711964059733 0.0408215641602 0
v -0.742687889753 0.0441913818902 0
v -0.75204617246 0.0313083736849 0
v -0.741363398805 0.0231819607172 0
v -0.68882295615 -0.0433814439045 0
v -0.6133 -0.0447875 0
v -0.6133 0.03 0
v -0.662632029866 0.0354107820801 0
v -0.648817210398 0.0553696737609 0
v -0.666575815598 0.0680545106414 0
v -0.617243785731 0.0626437285613 0
v -0.621187571462 0.0952874571226 0
v -0.626039145108 0.13544517967 0
v -0.702480124549 0.115321803178 0
v -0.630890718753 0.175602902217 0
v -0.696882859377 0.177588951109 0
v -0.610483527228 0.254998477723 0
v -0.585363730011 0.290862326645 0
v -0.608790982739 0.302789500917 0
v -0.619317087496 0.294118530341 0
v -0.590076335702 0.334394053229 0
v -0.609113491734 0.333816318094 0
v -0.628150647765 0.33323858296 0
v -0.695512823883 0.33119429148 0
v -0.67518017093 0.255625455429 0
v -0.634729426886 0.218910009296 0
v -0.623132350706 0.406270659047 0
v -0.64457653356 0.40598179148 0
v -0.601688167851 0.406559526614 0
v -0.6133 0.478725 0
v -0.637151209677 0.478725 0
v -0.661002419355 0.478725 0
v -0.711938709677 0.478725 0
v -0.70372576678 0.40495964574 0
v -0.645594959677 0.5535125 0
v -0.677889919355 0.5535125 0
v -0.6133 0.5535125 0
v -0.6133 0.6283 0
v -0.654038709677 0.6283 0
v -0.694777419355 0.6283 0
v -0.728826209677 0.6283 0
v -0.720382459677 0.5535125 0
v -0.660344354839 0.668342592593 0
v -0.707388709677 0.68415 0
v -0.6133 0.652535185185 0
v -0.6133 0.67677037037 0
v -0.66665 0.708385185185 0
v -0.72 0.74 0
v -0.6133 0.727322685185 0
v -0.666150625 0.743130092593 0
v -0.6133 0.777875 0
v -0.66565125 0.777875 0
v -0.7180025 0.777875 0
v -0.71900125 0.7589375 0
v -0.74043875 0.777875 0
v -0.740938125 0.757188125 0
v -0.762875 0.75543875 0
v -0.762875 0.7330025 0
v -0.7414375 0.73650125 0
v -0.762875 0.68065125 0
v -0.735131854839 0.682400625 0
v -0.700134748529 0.763576855447 0
v -0.6880875 0.8526625 0
v -0.463725 -1.1666 0
v -0.463725 -1.017025 0
v -0.5385125 -0.9422375 0
v -0.463725 -0.86745 0
v -0.5385125 -0.86745 0
v -0.463725 -0.787777916667 0
v -0.463725 -0.752826458333 0
v -0.537204695776 -0.739766509831 0
v -0.537384322327 -0.766907775341 0
v -0.463725 -0.717875 0
v -0.537025069224 -0.712625244321 0
v -0.537948411164 -0.81717888767 0
v -0.463725 -0.827613958333 0
v -0.537768784612 -0.64046262216 0
v -0.463725 -0.6430875 0
v -0.463725 -0.5683 0
v -0.5385125 -0.5683 0
v -0.5385125 -0.4935125 0
v -0.463725 -0.418725 0
v -0.463725 -0.26915 0
v -0.463725 -0.119575 0
v -0.5385125 -0.0447875 0
v -0.463725 0.03 0
v -0.546339651366 0.046979659486 0
v -0.592760083435 0.176508940926 0
v -0.611825401094 0.176055921572 0
v -0.606209593413 0.141849825066 0
v -0.586380041717 0.148254470463 0
v -0.600593785731 0.107643728561 0
v -0.58 0.12 0
v -0.505032325683 0.038489829743 0
v -0.518082133563 0.0760481600197 0
v -0.563169825683 0.083489829743 0
v -0.472994441443 0.0686064902963 0
v -0.482263882886 0.107212980593 0
v -0.531131941443 0.113606490296 0
v -0.472994441443 0.143393990296 0
v -0.52968724158 0.14582423038 0
v -0.463725 0.179575 0
v -0.528242541717 0.178041970463 0
v -0.590206805707 0.0730667791522 0
v -0.579819825683 0.038489829743 0
v -0.539123408835 0.25886053868 0
v -0.601621805331 0.215753709324 0
v -0.463725 0.2543625 0
v -0.463725 0.32915 0
v -0.526900667851 0.331772026614 0
v -0.612102880806 0.207081065975 0
v -0.532706583926 0.405248513307 0
v -0.463725 0.4039375 0
v -0.463725 0.478725 0
v -0.5385125 0.478725 0
v -0.462689292382 0.587519580671 0
v -0.462483556452 0.60913084802 0
v -0.486215350017 0.615949738116 0
v -0.498184114765 0.60855354949 0
v -0.462277820522 0.630742115368 0
v -0.497978378835 0.630164816839 0
v -0.533678937147 0.62958751831 0
v -0.573489468574 0.628943759155 0
v -0.541727256743 0.549737247215 0
v -0.463207146191 0.533122290335 0
v -0.533769691157 0.709136405881 0
v -0.573489468574 0.65317894434 0
v -0.463001410261 0.704308557684 0
v -0.463725 0.777875 0
v -0.5385125 0.777875 0
v -0.586759645716 0.644885962893 0
v -0.5385125 0.8526625 0
v -0.463725 0.8526625 0
v -0.31415 -1.1666 0
v -0.31415 -1.017025 0
v -0.31415 -0.9422375 0
v -0.3889375 -0.9422375 0
v -0.31415 -0.86745 0
v -0.377077003101 -0.852996566219 0
v -0.35154375 -0.86745 0
v -0.332846875 -0.86745 0
v -0.3324609375 -0.84014 0
v -0.350771875 -0.843725 0
v -0.31415 -0.836555 0
v -0.31415 -0.80566 0
v -0.332075 -0.81283 0
v -0.35 -0.82 0
v -0.31415 -0.7617675 0
v -0.334330625 -0.7653525 0
v -0.31415 -0.717875 0
v -0.33658625 -0.717875 0
v -0.3590225 -0.717875 0
v -0.35451125 -0.7689375 0
v -0.41137375 -0.717875 0
v -0.409118125 -0.760881979167 0
v -0.4068625 -0.803888958333 0
v -0.4072484375 -0.835669479167 0
v -0.407634375 -0.86745 0
v -0.38227660949 -0.735345136587 0
v -0.3889375 -0.6430875 0
v -0.31415 -0.5683 0
v -0.31415 -0.418725 0
v -0.3889375 0.1047875 0
v -0.31415 0.179575 0
v -0.3889375 0.179575 0
v -0.3889375 0.2543625 0
v -0.31415 0.2543625 0
v -0.31415 0.32915 0
v -0.3889375 0.32915 0
v -0.391425893854 0.399738335371 0
v -0.300712355979 0.398776737553 0
v -0.324103575417 0.461928341484 0
v -0.393914287708 0.470326670742 0
v -0.321592136363 0.503906451178 0
v -0.317871068181 0.566103225589 0
v -0.390177312317 0.587617036804 0
v -0.392140714372 0.545713015924 0
v -0.31415 0.6283 0
v -0.388213910261 0.629521057684 0
v -0.39302750104 0.508019843333 0
v -0.32284785589 0.482917396331 0
v -0.388575705131 0.703698028842 0
v -0.31415 0.7030875 0
v -0.31415 0.777875 0
v -0.3889375 0.777875 0
v -0.3889375 0.8526625 0
v -0.164575 -1.1666 0
v -0.164575 -1.017025 0
v -0.2393625 -0.9422375 0
v -0.164575 -0.86745 0
v -0.2393625 -0.86745 0
v -0.167766255061 -0.747106502024 0
v -0.168294644996 -0.727180707348 0
v -0.241222322498 -0.744474103674 0
v -0.24095812753 -0.776383251012 0
v -0.168823034932 -0.707254912671 0
v -0.241486517466 -0.712564956336 0
v -0.240160313765 -0.821916625506 0
v -0.16617062753 -0.807278251012 0
v -0.240424508733 -0.640432478168 0
v -0.166699017466 -0.637777456336 0
v -0.164575 -0.5683 0
v -0.164575 -0.418725 0
v -0.164575 0.179575 0
v -0.2393625 0.2543625 0
v -0.164575 0.32915 0
v -0.229135405381 0.344801826424 0
v -0.1795325 0.32915 0
v -0.17205375 0.32915 0
v -0.173867414175 0.377334311055 0
v -0.17976625 0.374575 0
v -0.167968578349 0.380093622109 0
v -0.171362156698 0.431037244219 0
v -0.175681078349 0.425518622109 0
v -0.18 0.42 0
v -0.173224509567 0.458994459584 0
v -0.179109388217 0.455609565193 0
v -0.175086862435 0.486951674949 0
v -0.182537698084 0.485700508276 0
v -0.189988533733 0.484449341603 0
v -0.184994266867 0.452224670801 0
v -0.228469145496 0.477987561841 0
v -0.212312763664 0.458658374561 0
v -0.266949757259 0.47152578208 0
v -0.22347487863 0.44576289104 0
v -0.295526666338 0.466727061782 0
v -0.254066837075 0.393270340237 0
v -0.24684125 0.32915 0
v -0.221018309847 0.479238728514 0
v -0.243339846212 0.55535440213 0
v -0.294270946811 0.487716116629 0
v -0.169830931218 0.557625837475 0
v -0.164575 0.6283 0
v -0.2393625 0.6283 0
v -0.304215156346 0.479120191581 0
v -0.2393625 0.7030875 0
v -0.164575 0.7030875 0
v -0.164575 0.777875 0
v -0.2393625 0.777875 0
v -0.2393625 0.8526625 0
v -0.164575 0.8526625 0
v -0.164575 0.92745 0
v -0.164575 1.077025 0
v -0.164575 1.2266 0
v -0.015 -1.1666 0
v -0.015 -1.017025 0
v -0.015 -0.9422375 0
v -0.0897875 -0.9422375 0
v -0.015 -0.86745 0
v -0.0897875 -0.86745 0
v -0.090463362069 -0.716185344828 0
v -0.1296431985 -0.696075024638 0
v -0.137811105952 -0.721961689391 0
v -0.129114808565 -0.731645923426 0
v -0.0899816612673 -0.784661524767 0
v -0.0135518446032 -0.796282888492 0
v -0.0121036892064 -0.725115776984 0
v -0.0512835256377 -0.73562280557 0
v -0.0429893661425 -0.710321200149 0
v -0.0516527214265 -0.700661088571 0
v -0.0124728849952 -0.705126304649 0
v -0.0128420807841 -0.685136832314 0
v -0.013921040392 -0.626718416157 0
v -0.0963087201692 -0.644203586043 0
v -0.015 -0.5683 0
v -0.0897875 -0.5683 0
v -0.0897875 -0.4935125 0
v -0.015 -0.4935125 0
v -0.015 -0.418725 0
v -0.015 0.179575 0
v -0.015 0.2543625 0
v -0.0897875 0.2543625 0
v -0.015 0.32915 0
v -0.0897875 0.32915 0
v -0.129438877409 0.484605878866 0
v -0.152262869922 0.485778776908 0
v -0.158629298848 0.467531599345 0
v -0.150400517054 0.457821561542 0
v -0.0894092418026 0.403429729681 0
v -0.015 0.4039375 0
v -0.015 0.478725 0
v -0.0722194387047 0.481665439433 0
v -0.0403198439589 0.545284671815 0
v -0.0797487990884 0.54809875672 0
v -0.000890888829362 0.54247058691 0
v 0.0132182223413 0.60621617382 0
v -0.00842024921307 0.608903904197 0
v -0.0300587207674 0.611591634575 0
v -0.0973168603837 0.619945817287 0
v -0.124789865153 0.552862297098 0
v -0.00395494395154 0.62472186819 0
v -0.0125415270979 0.633974715375 0
v 0.0090969444564 0.631286984997 0
v 0.00497566657152 0.656357796175 0
v -0.00501216671424 0.717116398087 0
v -0.084077433109 0.698280047262 0
v -0.015 0.777875 0
v -0.0897875 0.777875 0
v -0.0897875 0.8526625 0
v -0.015 0.8526625 0
v -0.015 0.92745 0
v -0.0897875 0.92745 0
v -0.0897875 1.0022375 0
v -0.015 1.0022375 0
v -0.015 1.077025 0
v -0.015 1.2266 0
v 0.134575 -1.1666 0
v 0.134575 -1.017025 0
v 0.0597875 -0.9422375 0
v 0.134575 -0.86745 0
v 0.0597875 -0.86745 0
v 0.0605115776984 -0.794472694246 0
v 0.134575 -0.7926625 0
v 0.134575 -0.717875 0
v 0.0612356553968 -0.721495388492 0
v 0.134575 -0.62617 0
v 0.134575 -0.597235 0
v 0.060326979804 -0.611976708078 0
v 0.060866459608 -0.655653416157 0
v 0.134575 -0.5683 0
v 0.0597875 -0.5683 0
v 0.0610510575024 -0.688574402324 0
v 0.134575 -0.6720225 0
v 0.0597875 -0.4935125 0
v 0.134575 -0.418725 0
v 0.134575 0.179575 0
v 0.0597875 0.2543625 0
v 0.134575 0.32915 0
v 0.0597875 0.32915 0
v 0.0597875 0.4039375 0
v 0.134575 0.4039375 0
v 0.134575 0.478725 0
v 0.0597875 0.478725 0
v 0.0668420555853 0.547991543455 0
v 0.134575 0.5535125 0
v 0.134575 0.6283 0
v 0.0738966111706 0.61725808691 0
v 0.0965846304838 0.773413694507 0
v 0.0407923152419 0.775644347254 0
v 0.0288534323518 0.735882163561 0
v 0.0507801485276 0.714885745341 0
v 0.0829316821133 0.682909401282 0
v 0.138601388427 0.699936413405 0
v 0.142627776855 0.771572826809 0
v 0.119606203669 0.772493260658 0
v 0.126299937227 0.791158660807 0
v 0.118136017413 0.800951577806 0
v 0.141157590599 0.800031143957 0
v 0.139687404343 0.828489461105 0
v 0.137131202171 0.877969730552 0
v 0.0585543655146 0.853922954074 0
v 0.134575 0.92745 0
v 0.0597875 0.92745 0
v 0.0597875 1.0022375 0
v 0.134575 1.077025 0
v 0.134575 1.2266 0
v 0.2093625 -0.7926625 0
v 0.28415 -0.717875 0
v 0.199666584038 -0.701888682462 0
v 0.1495325 -0.717875 0
v 0.21684125 -0.717875 0
v 0.216958125 -0.673943097015 0
v 0.14976625 -0.6689375 0
v 0.28415 -0.67894869403 0
v 0.28415 -0.64002238806 0
v 0.217075 -0.63001119403 0
v 0.15 -0.62 0
v 0.28415 -0.60416119403 0
v 0.216958125 -0.599155597015 0
v 0.28415 -0.5683 0
v 0.21684125 -0.5683 0
v 0.1495325 -0.5683 0
v 0.14976625 -0.59415 0
v 0.14205375 -0.5683 0
v 0.142170625 -0.5956925 0
v 0.1422875 -0.623085 0
v 0.142170625 -0.67048 0
v 0.14205375 -0.717875 0
v 0.195263198642 -0.58057936627 0
v 0.2093625 -0.4935125 0
v 0.28415 -0.4935125 0
v 0.28415 -0.418725 0
v 0.28415 0.179575 0
v 0.297392036066 0.267561803603 0
v 0.2093625 0.2543625 0
v 0.28415 0.32915 0
v 0.2093625 0.32915 0
v 0.204460913559 0.402449518402 0
v 0.274346827118 0.400961536804 0
v 0.264543654236 0.472773073607 0
v 0.199559327118 0.475749036804 0
v 0.279537357664 0.552112233577 0
v 0.302530490754 0.588853289396 0
v 0.277733038251 0.600029310393 0
v 0.267610974034 0.591399144358 0
v 0.294531061092 0.631451393546 0
v 0.275107825748 0.631068724342 0
v 0.255684590404 0.630686055139 0
v 0.195129795202 0.629493027569 0
v 0.213783120461 0.552519272465 0
v 0.257603310905 0.515171029099 0
v 0.261585884511 0.703668382074 0
v 0.233831238476 0.702673567375 0
v 0.289340530546 0.704663196773 0
v 0.28415 0.777875 0
v 0.248063943273 0.776268039805 0
v 0.211977886547 0.774661079611 0
v 0.177302831701 0.77311695321 0
v 0.186216313451 0.70130499039 0
v 0.240069471637 0.813820894903 0
v 0.195988943273 0.827330539805 0
v 0.28415 0.80031125 0
v 0.28415 0.8227475 0
v 0.232075 0.85137375 0
v 0.18 0.88 0
v 0.28415 0.87509875 0
v 0.2300671875 0.889411875 0
v 0.28415 0.92745 0
v 0.228059375 0.92745 0
v 0.17196875 0.92745 0
v 0.175984375 0.903725 0
v 0.153271875 0.92745 0
v 0.156557788586 0.890847365276 0
v 0.159843702171 0.854244730552 0
v 0.168573266936 0.813680841881 0
v 0.199524053307 0.911551003131 0
v 0.2093625 1.0022375 0
v 0.28415 1.0022375 0
v 0.28415 1.077025 0
v 0.28415 1.2266 0
v 0.433725 -0.7926625 0
v 0.3589375 -0.7926625 0
v 0.433725 -0.717875 0
v 0.3589375 -0.717875 0
v 0.433725 -0.662347014925 0
v 0.433725 -0.615323507463 0
v 0.3589375 -0.609742350746 0
v 0.3589375 -0.651184701493 0
v 0.433725 -0.5683 0
v 0.3589375 -0.5683 0
v 0.3589375 -0.684529850746 0
v 0.433725 -0.690111007463 0
v 0.3589375 -0.4935125 0
v 0.433725 -0.418725 0
v 0.433725 -0.26915 0
v 0.433725 -0.119575 0
v 0.433725 0.03 0
v 0.433725 0.1047875 0
v 0.3589375 0.1047875 0
v 0.433725 0.179575 0
v 0.357749920209 0.198234120799 0
v 0.435490658877 0.308601245483 0
v 0.435748310307 0.327429229255 0
v 0.391658320907 0.327719715675 0
v 0.392745329438 0.314300622742 0
v 0.436005961737 0.346257213027 0
v 0.390571312375 0.341138808609 0
v 0.345136663013 0.336020404191 0
v 0.347568331507 0.328010202096 0
v 0.35 0.32 0
v 0.290771018033 0.223568401801 0
v 0.322322989069 0.241342731101 0
v 0.323696018033 0.293780901801 0
v 0.320949960105 0.1889045604 0
v 0.353874960105 0.2591170604 0
v 0.395737460105 0.1889045604 0
v 0.394241394771 0.251602591571 0
v 0.434607829438 0.244088122742 0
v 0.31916967477 0.313183051949 0
v 0.314643331507 0.332585202096 0
v 0.290771018033 0.298355901801 0
v 0.379519284549 0.408783996175 0
v 0.324173088229 0.405076885835 0
v 0.434865480868 0.412491106514 0
v 0.433725 0.478725 0
v 0.368467256722 0.47642918374 0
v 0.303209513444 0.47413336748 0
v 0.28387658384 0.473453220544 0
v 0.299259957673 0.40301921132 0
v 0.345686319675 0.554536514056 0
v 0.291373435554 0.513122800528 0
v 0.433725 0.5535125 0
v 0.433725 0.6283 0
v 0.364128030546 0.629875696773 0
v 0.281355955735 0.504329152138 0
v 0.361532765273 0.703875348386 0
v 0.433725 0.777875 0
v 0.3589375 0.8526625 0
v 0.266065723594 0.857409296987 0
v 0.433725 0.92745 0
v 0.3589375 0.92745 0
v 0.3589375 1.0022375 0
v 0.433725 1.077025 0
v 0.433725 1.2266 0
v 0.508344430525 -0.793788565484 0
v 0.582627722099 -0.722379261938 0
v 0.508176361049 -0.720127130969 0
v 0.582792578252 -0.684595907202 0
v 0.583046289126 -0.626447953601 0
v 0.508385644563 -0.620885730532 0
v 0.508258789126 -0.673471461064 0
v 0.5833 -0.5683 0
v 0.5085125 -0.5683 0
v 0.508217575088 -0.696799296016 0
v 0.582710150175 -0.70348758457 0
v 0.5085125 -0.4935125 0
v 0.5833 -0.4935125 0
v 0.5833 -0.418725 0
v 0.5833 -0.3439375 0
v 0.5085125 -0.3439375 0
v 0.5833 -0.26915 0
v 0.5085125 -0.26915 0
v 0.5085125 -0.1943625 0
v 0.60071106735 -0.187548700141 0
v 0.5833 -0.119575 0
v 0.5833 -0.0447875 0
v 0.5085125 -0.0447875 0
v 0.5833 0.03 0
v 0.5085125 0.03 0
v 0.5085125 0.1047875 0
v 0.5833 0.1047875 0
v 0.5833 0.179575 0
v 0.5085125 0.179575 0
v 0.5833 0.288893333333 0
v 0.5833 0.309021666667 0
v 0.509524155153 0.318225447961 0
v 0.509395329438 0.298747289408 0
v 0.5833 0.32915 0
v 0.509652980868 0.337703606514 0
v 0.508953914719 0.239161144704 0
v 0.5833 0.234234166667 0
v 0.509082740434 0.408214303257 0
v 0.5833 0.4039375 0
v 0.5833 0.478725 0
v 0.5085125 0.478725 0
v 0.5085125 0.5535125 0
v 0.732875 -1.1666 0
v 0.732875 -1.017025 0
v 0.732875 -0.86745 0
v 0.744373674965 -0.79286143845 0
v 0.656936504872 -0.80037416736 0
v 0.728943297388 -0.744217407503 0
v 0.655785509743 -0.733298334721 0
v 0.72808228132 -0.70628093751 0
v 0.726549484137 -0.638745711912 0
v 0.654797886631 -0.632596832756 0
v 0.655437429786 -0.695438422356 0
v 0.725016686953 -0.571210486314 0
v 0.654158343476 -0.569755243157 0
v 0.655611469765 -0.714368378538 0
v 0.728512789354 -0.725249172507 0
v 0.735724819059 -0.49245701146 0
v 0.756662881439 -0.453080274033 0
v 0.731156985601 -0.444921741234 0
v 0.72136558421 -0.453687077368 0
v 0.746432951165 -0.413703536605 0
v 0.726719650263 -0.414310339941 0
v 0.707006349362 -0.414917143276 0
v 0.645153174681 -0.416821071638 0
v 0.666869571075 -0.49312192821 0
v 0.715402858201 -0.531833748887 0
v 0.709833204761 -0.34173016997 0
v 0.68001243394 -0.342033571638 0
v 0.739653975583 -0.341426768303 0
v 0.732875 -0.26915 0
v 0.692946759259 -0.26915 0
v 0.653018518519 -0.26915 0
v 0.618159259259 -0.26915 0
v 0.63165621697 -0.342985535819 0
v 0.714327668894 -0.19200249076 0
v 0.723601334447 -0.15578874538 0
v 0.683669863652 -0.15278812269 0
v 0.667163834447 -0.18600124538 0
v 0.732875 -0.119575 0
v 0.700175892857 -0.119575 0
v 0.667476785714 -0.119575 0
v 0.643738392857 -0.1497875 0
v 0.62 -0.18 0
v 0.636509259259 -0.224575 0
v 0.680055296853 -0.22757562269 0
v 0.723601334447 -0.23057624538 0
v 0.592005533675 -0.228349350071 0
v 0.614257396467 -0.226462175035 0
v 0.610355533675 -0.183774350071 0
v 0.617871963266 -0.151674675035 0
v 0.625388392857 -0.119575 0
v 0.592005533675 -0.153561850071 0
v 0.711075595238 -0.0918303030303 0
v 0.700175892857 -0.0779579545455 0
v 0.732875 -0.0779579545455 0
v 0.732875 -0.0363409090909 0
v 0.732875 -0.00317045454545 0
v 0.65074860315 -0.0382720312436 0
v 0.732875 0.03 0
v 0.6580875 0.03 0
v 0.6580875 0.1047875 0
v 0.732875 0.1047875 0
v 0.732875 0.179575 0
v 0.6580875 0.179575 0
v 0.732875 0.26895 0
v 0.732875 0.29905 0
v 0.6580875 0.304035833333 0
v 0.6580875 0.278921666667 0
v 0.732875 0.32915 0
v 0.6580875 0.32915 0
v 0.6580875 0.229248333333 0
v 0.732875 0.2242625 0
v 0.6580875 0.4039375 0
v 0.732875 0.478725 0
v 0.88245 -1.1666 0
v 0.88245 -1.017025 0
v 0.88245 -0.9422375 0
v 0.8076625 -0.9422375 0
v 0.88245 -0.86745 0
v 0.809221465291 -0.848818232451 0
v 0.806679574347 -0.799248101876 0
v 0.870263362916 -0.778482972104 0
v 0.88245 -0.717875 0
v 0.815709202399 -0.728376496917 0
v 0.848602788191 -0.722026953452 0
v 0.847649162173 -0.723768049399 0
v 0.817347095079 -0.725296222892 0
v 0.88245 -0.714135625 0
v 0.88245 -0.71039625 0
v 0.844285161793 -0.717569707289 0
v 0.82 -0.72 0
v 0.88245 -0.639348125 0
v 0.837380398721 -0.642293639048 0
v 0.88245 -0.5683 0
v 0.823535797443 -0.569389153095 0
v 0.764621594885 -0.570478306191 0
v 0.792310797443 -0.645239153095 0
v 0.744819140919 -0.570844396252 0
v 0.75943014079 -0.641992432504 0
v 0.77404114066 -0.713140468755 0
v 0.770669552153 -0.719674574863 0
v 0.768621532531 -0.730654091909 0
v 0.807170283761 -0.487014127019 0
v 0.750173206972 -0.531467658825 0
v 0.88245 -0.4935125 0
v 0.88245 -0.418725 0
v 0.814441475583 -0.416214268303 0
v 0.740391962553 -0.540168378841 0
v 0.811051987791 -0.342682134151 0
v 0.88245 -0.26915 0
v 0.8076625 -0.1943625 0
v 0.88245 -0.119575 0
v 0.8076625 -0.119575 0
v 0.785 0.03 0
v 0.7589375 0.03 0
v 0.75025 0.00788636363636 0
v 0.7589375 -0.00317045454545 0
v 0.812471082005 -0.0491991976761 0
v 0.88245 -0.0447875 0
v 0.88245 0.03 0
v 0.833725 0.03 0
v 0.846160168881 0.066497790697 0
v 0.828015253321 0.0847466860455 0
v 0.876740253321 0.0847466860455 0
v 0.871030506643 0.139493372091 0
v 0.868244156999 0.166209690299 0
v 0.791319585794 0.119464275837 0
v 0.865457807356 0.192926008506 0
v 0.799166403678 0.186250504253 0
v 0.872616692732 0.250317774302 0
v 0.877533346366 0.289733887151 0
v 0.805204173183 0.294391943576 0
v 0.802745846366 0.259633887151 0
v 0.88245 0.32915 0
v 0.8076625 0.32915 0
v 0.800956125022 0.222942195702 0
v 0.869037250044 0.221621891404 0
v 0.8076625 0.4039375 0
v 0.88245 0.4039375 0
v 0.88245 0.478725 0
v 1.032025 -1.1666 0
v 1.032025 -1.017025 0
v 0.9572375 -0.9422375 0
v 1.032025 -0.86745 0
v 0.9572375 -0.86745 0
v 0.9572375 -0.7926625 0
v 1.032025 -0.717875 0
v 0.9572375 -0.6430875 0
v 0.88245 -0.6430875 0
v 1.032025 -0.5683 0
v 0.9572375 -0.5683 0
v 0.9572375 -0.4935125 0
v 1.032025 -0.418725 0
v 1.032025 -0.26915 0
v 1.032025 -0.119575 0
v 0.9572375 -0.0447875 0
v 1.032025 0.03 0
v 0.9572375 0.03 0
v 0.91019578171 0.189340085812 0
v 0.887826794533 0.191133047159 0
v 0.882228031903 0.173919822136 0
v 0.890613144176 0.164416728952 0
v 0.955366790334 0.106258936785 0
v 1.032025 0.1047875 0
v 1.032025 0.179575 0
v 0.971110390855 0.184457542906 0
v 1.01360831833 0.25113775644 0
v 1.02281665916 0.29014387822 0
v 0.987839479962 0.282700547927 0
v 0.981804159165 0.24556887822 0
v 1.032025 0.32915 0
v 0.993874800758 0.319832217633 0
v 0.955724601517 0.310514435266 0
v 0.952862300758 0.275257217633 0
v 0.95 0.24 0
v 0.919087300758 0.319832217633 0
v 0.915197823562 0.282495552392 0
v 0.911308346366 0.245158887151 0
v 0.930097890855 0.214670042906 0
v 0.97645727501 0.215013210563 0
v 1.02281665916 0.21535637822 0
v 0.899567570449 0.218145967155 0
v 0.9572375 0.4039375 0
v 1.032025 0.478725 0
v 1.1816 -1.1666 0
v 1.1816 -1.017025 0
v 1.1816 -0.86745 0
v 1.1816 -0.717875 0
v 1.1816 -0.5683 0
v 1.1816 -0.418725 0
v 1.1816 -0.26915 0
v 1.1816 -0.119575 0
v 1.1816 0.03 0
v 1.1068125 0.1047875 0
v 1.1816 0.179575 0
v 1.1068125 0.179575 0
v 1.1068125 0.2543625 0
v 1.1816 0.32915 0
v 1.1816 0.478725 0
g exterior
f 1 2 3 4
f 4 3 5 6
f 1 4 6 7
f 8 9 10 11
f 9 12 13 10
f 10 13 14 11
f 11 14 15 16
f 16 15 17 18
f 11 16 18 19
f 19 18 20 21
f 18 17 22 20
f 20 22 23 21
f 17 24 25 22
f 24 26 27 25
f 22 25 27 23
f 26 28 29 27
f 28 30 31 29
f 29 31 32 27
g interior
f 33 34 35 36
f 34 37 38 35
f 35 38 39 40
f 36 35 40 41
f 37 42 43 38
f 42 44 45 43
f 43 45 46 47
f 38 43 47 39
g exterior
f 48 49 50 51
f 49 52 53 50
f 50 53 54 55
f 51 50 55 56
f 57 58 59 60
f 58 61 62 59
f 60 59 62 63
f 63 62 64 65
f 62 66 67 64
f 64 67 68 65
f 61 69 70 62
f 69 71 72 70
f 70 72 73 62
f 62 73 74 66
f 7 6 75 76
f 76 75 77 78
f 7 76 78 79
f 79 78 80 81
f 78 77 82 80
f 80 82 83 81
f 81 83 84 85
f 85 84 86 87
f 81 85 87 88
f 88 87 89 90
f 87 86 91 89
f 89 91 92 90
f 90 92 93 94
f 94 93 95 96
f 90 94 96 97
f 97 96 98 99
f 96 95 100 98
f 98 100 101 99
f 99 101 102 103
f 103 102 9 8
f 6 5 104 75
f 5 105 106 104
f 104 106 77 75
f 82 107 108 109
f 77 110 108 107
f 106 111 108 110
f 112 109 108 111
f 106 113 114 111
f 105 115 114 113
f 116 117 114 115
f 112 111 114 117
f 112 118 119 109
f 120 121 119 118
f 83 122 119 121
f 82 109 119 122
g interior
f 116 123 124 117
f 125 126 124 123
f 120 118 124 126
f 112 117 124 118
f 120 126 127 128
f 125 129 127 126
f 130 131 127 129
f 132 128 127 131
g exterior
f 132 133 134 128
f 86 84 134 133
f 83 121 134 84
f 120 128 134 121
g interior
f 132 131 135 136
f 130 137 135 131
f 138 139 135 137
f 140 136 135 139
g exterior
f 140 141 142 136
f 92 91 142 141
f 86 133 142 91
f 132 136 142 133
g interior
f 140 139 143 144
f 138 145 143 139
f 146 147 143 145
f 148 144 143 147
g exterior
f 148 149 150 144
f 95 93 150 149
f 92 141 150 93
f 140 144 150 141
f 151 152 153 154
f 101 155 153 152
f 100 156 153 155
f 157 154 153 156
f 100 158 159 156
f 95 149 159 158
f 148 160 159 149
f 157 156 159 160
f 157 161 162 154
f 163 164 162 161
f 165 166 162 164
f 151 154 162 166
g interior
f 148 147 167 160
f 146 168 167 147
f 163 161 167 168
f 157 160 167 161
g exterior
f 101 151 169 102
f 151 165 170 169
f 169 170 171 102
f 102 171 12 9
f 2 172 173 3
f 3 173 174 5
f 5 174 175 176
f 176 175 177 178
f 5 176 178 105
g interior
f 179 180 181 182
f 183 184 181 180
f 125 123 181 184
f 116 182 181 123
g exterior
f 116 115 185 182
f 105 178 185 115
f 177 186 185 178
f 179 182 185 186
g interior
f 125 184 187 129
f 184 183 188 187
f 129 187 188 130
f 130 188 189 137
f 188 190 191 189
f 189 191 138 137
f 138 191 192 145
f 191 190 193 192
f 192 193 194 195
f 145 192 195 146
g exterior
f 196 197 198 199
f 200 201 198 197
f 165 164 198 201
f 163 199 198 164
g interior
f 163 168 202 199
f 146 195 202 168
f 194 203 202 195
f 196 199 202 203
g exterior
f 165 201 204 170
f 201 200 205 204
f 204 205 206 207
f 170 204 207 171
f 171 207 208 12
f 207 206 209 208
f 208 209 210 12
f 12 210 211 212
f 212 211 213 214
f 12 212 214 13
f 13 214 215 14
f 214 213 216 215
f 215 216 217 14
f 14 217 218 219
f 219 218 220 221
f 14 219 221 15
f 15 221 222 17
f 221 220 223 222
f 222 223 24 17
f 172 224 225 173
f 173 225 226 227
f 227 226 228 229
f 173 227 229 174
g interior
f 230 231 232 233
f 234 235 232 231
f 236 233 232 235
g exterior
f 236 237 238 233
f 177 175 238 237
f 174 229 238 175
f 228 239 238 229
f 230 233 238 239
g interior
f 236 235 240 241
f 234 242 240 235
f 243 244 240 242
f 183 180 240 244
f 179 241 240 180
g exterior
f 179 186 245 241
f 177 237 245 186
f 236 241 245 237
g interior
f 183 244 246 188
f 244 243 247 246
f 246 247 248 188
f 188 248 249 190
f 190 249 250 193
f 249 251 252 250
f 250 252 194 193
g exterior
f 253 254 255 256
f 200 197 255 254
f 196 256 255 197
g interior
f 196 203 257 256
f 194 252 257 203
f 251 258 257 252
f 259 260 257 258
f 253 256 257 260
f 253 260 261 262
f 259 263 261 260
f 264 262 261 263
g exterior
f 264 265 266 262
f 267 268 266 265
f 206 205 266 268
f 200 254 266 205
f 253 262 266 254
g interior
f 269 270 271 272
f 273 274 271 270
f 275 272 271 274
g exterior
f 275 276 277 272
f 210 209 277 276
f 206 268 277 209
f 267 278 277 268
f 269 272 277 278
g interior
f 275 274 279 280
f 273 281 279 274
f 282 283 279 281
f 284 280 279 283
g exterior
f 284 285 286 280
f 213 211 286 285
f 210 276 286 211
f 275 280 286 276
g interior
f 284 283 287 288
f 282 289 287 283
f 290 291 287 289
f 292 288 287 291
g exterior
f 292 293 294 288
f 217 216 294 293
f 213 285 294 216
f 284 288 294 285
g interior
f 292 291 295 296
f 290 297 295 291
f 298 299 295 297
f 300 296 295 299
g exterior
f 298 301 302 299
f 303 304 302 301
f 305 306 302 304
f 300 299 302 306
f 305 307 308 306
f 220 309 308 307
f 310 311 308 309
f 300 306 308 311
f 310 312 313 311
f 217 293 313 312
f 292 296 313 293
f 300 311 313 296
f 220 314 315 223
f 314 303 26 315
f 223 315 26 24
f 224 316 317 225
f 225 317 318 226
f 317 319 320 318
f 318 320 228 226
g interior
f 321 322 323 324
f 325 326 323 322
f 234 231 323 326
f 230 324 323 231
g exterior
f 230 239 327 324
f 228 320 327 239
f 319 328 327 320
f 321 324 327 328
g interior
f 234 326 329 242
f 326 325 330 329
f 329 330 331 332
f 242 329 332 243
f 243 332 333 247
f 332 331 334 333
f 247 333 334 248
f 248 334 335 249
f 249 335 336 251
f 251 336 337 258
f 336 338 339 337
f 337 339 259 258
g exterior
f 340 341 342 343
f 267 265 342 341
f 264 344 342 265
f 345 343 342 344
g interior
f 339 346 347 348
f 338 349 347 346
f 350 351 347 349
f 345 348 347 351
f 350 352 353 351
f 354 355 353 352
f 340 343 353 355
f 345 351 353 343
f 345 344 356 348
f 264 263 356 344
f 259 357 356 263
f 339 348 356 357
f 340 355 358 359
f 354 360 358 355
f 361 362 358 360
f 273 270 358 362
f 269 359 358 270
g exterior
f 269 278 363 359
f 267 341 363 278
f 340 359 363 341
g interior
f 273 362 364 281
f 362 361 365 364
f 364 365 366 367
f 281 364 367 282
g exterior
f 368 369 370 371
f 372 373 370 369
f 374 371 370 373
g interior
f 374 375 376 371
f 290 289 376 375
f 282 367 376 289
f 366 377 376 367
f 368 371 376 377
g exterior
f 374 373 378 379
f 372 380 378 373
f 381 382 378 380
f 303 301 378 382
f 298 379 378 301
g interior
f 298 297 383 379
f 290 375 383 297
f 374 379 383 375
g exterior
f 303 382 384 26
f 382 381 385 384
f 384 385 28 26
f 316 386 387 317
f 317 387 388 389
f 389 388 390 391
f 317 389 391 319
f 392 393 394 395
f 390 396 394 393
f 397 398 394 396
f 399 395 394 398
g interior
f 397 400 401 398
f 402 403 401 400
f 404 405 401 403
f 399 398 401 405
f 404 406 407 405
f 325 322 407 406
f 321 408 407 322
f 399 405 407 408
g exterior
f 321 328 409 408
f 319 410 409 328
f 392 395 409 410
f 399 408 409 395
g interior
f 325 411 412 330
f 411 402 413 412
f 330 412 413 331
f 331 413 414 334
f 334 414 33 335
f 335 33 36 336
f 336 36 41 338
f 338 41 415 350
f 41 416 417 415
f 415 417 354 350
f 354 417 418 360
f 417 416 419 418
f 418 419 420 421
f 360 418 421 361
f 361 421 422 365
f 421 420 423 422
f 422 423 424 425
f 365 422 425 366
g exterior
f 426 427 428 429
f 430 431 428 427
f 372 369 428 431
f 368 429 428 369
g interior
f 368 377 432 429
f 366 425 432 377
f 424 433 432 425
f 426 429 432 433
g exterior
f 372 431 434 380
f 431 430 435 434
f 434 435 436 437
f 380 434 437 381
f 381 437 438 385
f 437 436 30 438
f 385 438 30 28
f 386 439 440 387
f 387 440 441 388
f 440 442 443 441
f 441 443 390 388
g interior
f 444 445 446 447
f 448 449 446 445
f 402 400 446 449
f 397 447 446 400
g exterior
f 397 396 450 447
f 390 443 450 396
f 442 451 450 443
f 444 447 450 451
g interior
f 402 449 452 413
f 449 448 453 452
f 452 453 454 413
f 413 454 455 414
f 414 455 34 33
f 41 40 456 416
f 416 456 457 419
f 456 458 459 457
f 457 459 420 419
f 460 461 462 463
f 458 464 462 461
f 465 466 462 464
f 467 463 462 466
g exterior
f 465 468 469 466
f 470 471 469 468
f 472 473 469 471
f 467 466 469 473
f 472 474 475 473
f 476 477 475 474
f 467 473 475 477
g interior
f 476 478 479 477
f 424 423 479 478
f 420 480 479 423
f 460 463 479 480
f 467 477 479 463
g exterior
f 476 481 482 483
f 470 484 482 481
f 485 486 482 484
f 430 427 482 486
f 426 483 482 427
g interior
f 426 433 487 483
f 424 478 487 433
f 476 483 487 478
g exterior
f 430 486 488 435
f 486 485 489 488
f 488 489 490 491
f 435 488 491 436
f 436 491 492 30
f 491 490 493 492
f 492 493 494 30
f 30 494 495 31
f 31 495 496 32
f 439 497 498 440
f 440 498 499 500
f 500 499 501 502
f 440 500 502 442
g interior
f 503 504 505 506
f 448 445 505 504
f 444 506 505 445
g exterior
f 444 451 507 506
f 442 502 507 451
f 501 508 507 502
f 509 510 507 508
f 503 506 507 510
f 503 510 511 512
f 509 513 511 510
f 514 512 511 513
g interior
f 514 515 516 512
f 517 518 516 515
f 454 453 516 518
f 448 504 516 453
f 503 512 516 504
f 454 518 519 455
f 518 517 520 519
f 519 520 521 455
f 455 521 37 34
f 40 39 522 456
f 456 522 523 524
f 524 523 525 526
f 456 524 526 458
g exterior
f 527 528 529 530
f 470 468 529 528
f 465 530 529 468
g interior
f 465 464 531 530
f 458 526 531 464
f 525 532 531 526
f 533 534 531 532
f 527 530 531 534
f 527 534 535 536
f 533 537 535 534
f 538 539 535 537
f 540 536 535 539
g exterior
f 540 541 542 536
f 485 484 542 541
f 470 528 542 484
f 527 536 542 528
g interior
f 540 539 543 544
f 538 545 543 539
f 546 544 543 545
g exterior
f 546 547 548 544
f 549 550 548 547
f 490 489 548 550
f 485 541 548 489
f 540 544 548 541
f 490 550 551 493
f 550 549 552 551
f 551 552 553 554
f 493 551 554 494
f 494 554 555 495
f 554 553 556 555
f 555 556 557 495
f 495 557 558 496
f 497 559 560 498
f 498 560 561 499
f 560 562 563 561
f 561 563 501 499
f 501 563 564 508
f 563 562 565 564
f 564 565 566 567
f 508 564 567 509
g interior
f 568 569 570 571
f 572 573 570 569
f 517 515 570 573
f 514 571 570 515
g exterior
f 514 513 574 571
f 509 567 574 513
f 566 575 574 567
f 568 571 574 575
g interior
f 517 573 576 520
f 573 572 577 576
f 520 576 577 521
f 521 577 42 37
f 39 47 578 522
f 522 578 579 523
f 578 580 581 579
f 579 581 525 523
f 525 581 582 532
f 581 580 583 582
f 582 583 584 585
f 532 582 585 533
f 533 585 586 537
f 585 584 587 586
f 586 587 588 589
f 537 586 589 538
g exterior
f 590 591 592 593
f 549 547 592 591
f 546 593 592 547
g interior
f 546 545 594 593
f 538 589 594 545
f 588 595 594 589
f 596 597 594 595
f 590 593 594 597
f 590 597 598 599
f 596 600 598 597
f 601 599 598 600
g exterior
f 601 602 603 599
f 604 605 603 602
f 553 552 603 605
f 549 591 603 552
f 590 599 603 591
f 553 605 606 556
f 605 604 607 606
f 556 606 607 557
f 557 607 608 558
f 559 48 51 560
f 560 51 56 562
f 562 56 609 565
f 56 610 611 609
f 609 611 566 565
f 612 613 614 615
f 610 616 614 613
f 617 618 614 616
f 619 615 614 618
g interior
f 617 620 621 618
f 622 623 621 620
f 624 625 621 623
f 619 618 621 625
f 624 626 627 625
f 572 569 627 626
f 568 628 627 569
f 619 625 627 628
g exterior
f 568 575 629 628
f 566 630 629 575
f 612 615 629 630
f 619 628 629 615
g interior
f 572 631 632 577
f 631 622 633 632
f 632 633 634 577
f 577 634 44 42
f 47 46 635 578
f 578 635 636 637
f 637 636 638 639
f 578 637 639 580
f 580 639 640 583
f 639 638 641 640
f 640 641 642 643
f 583 640 643 584
g exterior
f 644 645 646 647
f 648 649 646 645
f 650 647 646 649
g interior
f 650 651 652 647
f 588 587 652 651
f 584 643 652 587
f 642 653 652 643
f 644 647 652 653
g exterior
f 650 649 654 655
f 648 656 654 649
f 657 658 654 656
f 659 655 654 658
g interior
f 659 660 661 655
f 596 595 661 660
f 588 651 661 595
f 650 655 661 651
g exterior
f 659 658 662 663
f 657 664 662 658
f 665 666 662 664
f 667 663 662 666
f 665 668 669 666
f 670 671 669 668
f 672 673 669 671
f 667 666 669 673
f 672 674 675 673
f 604 602 675 674
f 601 676 675 602
f 667 673 675 676
g interior
f 601 600 677 676
f 596 660 677 600
f 659 663 677 660
f 667 676 677 663
g exterior
f 604 678 679 607
f 678 670 680 679
f 679 680 681 607
f 607 681 682 608
f 56 55 683 684
f 684 683 685 686
f 56 684 686 610
g interior
f 687 688 689 690
f 691 692 689 688
f 622 620 689 692
f 617 690 689 620
g exterior
f 617 616 693 690
f 610 686 693 616
f 685 694 693 686
f 687 690 693 694
g interior
f 622 692 695 633
f 692 691 696 695
f 633 695 696 634
f 634 696 697 44
f 44 697 698 45
f 45 698 699 46
f 46 699 700 701
f 701 700 702 703
f 46 701 703 635
g exterior
f 704 705 706 707
f 708 709 706 705
f 710 711 706 709
f 712 707 706 711
g interior
f 636 713 714 715
f 635 716 714 713
f 703 717 714 716
f 712 715 714 717
f 703 718 719 717
f 702 720 719 718
f 704 707 719 720
f 712 717 719 707
f 712 711 721 715
f 710 722 721 711
f 638 723 721 722
f 636 715 721 723
g exterior
f 710 709 724 725
f 708 726 724 709
f 727 728 724 726
f 729 725 724 728
g interior
f 729 730 731 725
f 642 641 731 730
f 638 722 731 641
f 710 725 731 722
g exterior
f 729 728 732 733
f 727 734 732 728
f 735 736 732 734
f 648 645 732 736
f 644 733 732 645
g interior
f 644 653 737 733
f 642 730 737 653
f 729 733 737 730
g exterior
f 648 736 738 656
f 736 735 739 738
f 656 738 739 657
f 657 739 740 741
f 739 742 743 740
f 740 743 670 741
f 670 743 744 680
f 743 742 745 744
f 680 744 745 681
f 681 745 746 682
f 55 54 747 683
f 54 748 749 747
f 747 749 685 683
g interior
f 750 751 752 753
f 754 755 752 751
f 691 688 752 755
f 687 753 752 688
g exterior
f 687 694 756 753
f 685 749 756 694
f 748 757 756 749
f 750 753 756 757
g interior
f 691 755 758 696
f 755 754 759 758
f 758 759 760 696
f 696 760 761 762
f 762 761 763 764
f 696 762 764 697
f 697 764 765 698
f 764 763 766 765
f 765 766 767 698
f 698 767 768 769
f 769 768 770 771
f 698 769 771 699
f 699 771 772 700
f 771 770 773 772
f 772 773 774 775
f 700 772 775 702
g exterior
f 776 777 778 779
f 780 781 778 777
f 708 705 778 781
f 704 779 778 705
g interior
f 704 720 782 779
f 702 775 782 720
f 774 783 782 775
f 776 779 782 783
g exterior
f 708 781 784 726
f 781 780 785 784
f 784 785 786 787
f 726 784 787 727
f 727 787 788 734
f 787 786 57 788
f 734 788 57 735
f 735 57 60 739
f 739 60 63 742
f 742 63 65 745
f 745 65 68 746
f 52 789 790 53
f 53 790 791 54
f 54 791 792 793
f 793 792 794 795
f 54 793 795 748
g interior
f 796 797 798 799
f 800 801 798 797
f 754 751 798 801
f 750 799 798 751
g exterior
f 750 757 802 799
f 748 795 802 757
f 794 803 802 795
f 796 799 802 803
f 804 805 806 807
f 808 809 806 805
f 810 807 806 809
g interior
f 810 811 812 807
f 760 759 812 811
f 754 801 812 759
f 800 813 812 801
f 804 807 812 813
g exterior
f 810 809 814 815
f 808 816 814 809
f 817 818 814 816
f 819 815 814 818
g interior
f 819 820 821 815
f 763 761 821 820
f 760 811 821 761
f 810 815 821 811
g exterior
f 822 823 824 825
f 826 827 824 823
f 828 829 824 827
f 830 825 824 829
f 830 831 832 825
f 819 818 832 831
f 817 833 832 818
f 822 825 832 833
g interior
f 766 834 835 836
f 763 820 835 834
f 819 831 835 820
f 830 836 835 831
f 830 829 837 836
f 828 838 837 829
f 767 839 837 838
f 766 836 837 839
g exterior
f 828 827 840 841
f 826 842 840 827
f 843 841 840 842
g interior
f 843 844 845 841
f 846 847 845 844
f 770 768 845 847
f 767 838 845 768
f 828 841 845 838
f 770 847 848 773
f 847 846 849 848
f 848 849 850 851
f 773 848 851 774
g exterior
f 852 853 854 855
f 856 857 854 853
f 780 777 854 857
f 776 855 854 777
g interior
f 776 783 858 855
f 774 851 858 783
f 850 859 858 851
f 852 855 858 859
g exterior
f 780 857 860 785
f 857 856 861 860
f 785 860 861 786
f 786 861 58 57
f 789 862 863 790
f 790 863 864 865
f 865 864 866 867
f 790 865 867 791
f 791 867 868 792
f 866 869 868 867
f 870 871 868 869
f 794 792 868 871
f 871 872 873 874
f 870 875 873 872
f 876 877 873 875
f 878 874 873 877
f 876 879 880 877
f 881 882 880 879
f 883 884 880 882
f 878 877 880 884
g interior
f 883 885 886 884
f 800 797 886 885
f 796 887 886 797
f 878 884 886 887
g exterior
f 796 803 888 887
f 794 889 888 803
f 871 874 888 889
f 878 887 888 874
f 883 882 890 891
f 881 892 890 882
f 893 894 890 892
f 808 805 890 894
f 804 891 890 805
g interior
f 804 813 895 891
f 800 885 895 813
f 883 891 895 885
g exterior
f 808 894 896 816
f 894 893 897 896
f 816 896 897 817
f 817 897 898 822
f 897 899 900 898
f 898 900 826 822
g interior
f 901 902 903 904
f 846 844 903 902
f 843 904 903 844
g exterior
f 843 842 905 904
f 826 900 905 842
f 899 906 905 900
f 907 908 905 906
f 901 904 905 908
f 901 908 909 910
f 907 911 909 908
f 912 910 909 911
g interior
f 912 913 914 910
f 915 916 914 913
f 850 849 914 916
f 846 902 914 849
f 901 910 914 902
g exterior
f 917 918 919 920
f 921 922 919 918
f 856 853 919 922
f 852 920 919 853
g interior
f 852 859 923 920
f 850 916 923 859
f 915 924 923 916
f 917 920 923 924
g exterior
f 856 922 925 861
f 922 921 926 925
f 925 926 927 861
f 861 927 61 58
f 862 928 929 863
f 863 929 930 864
f 929 931 932 930
f 930 932 866 864
f 866 932 933 869
f 932 931 934 933
f 869 933 934 870
f 870 934 935 936
f 934 937 938 935
f 935 938 881 936
f 881 938 939 892
f 938 937 940 939
f 892 939 940 893
f 893 940 941 897
f 897 941 942 899
f 899 942 943 906
f 942 944 945 943
f 943 945 907 906
g interior
f 946 947 948 949
f 915 913 948 947
f 912 949 948 913
g exterior
f 912 911 950 949
f 907 945 950 911
f 944 951 950 945
f 952 953 950 951
f 946 949 950 953
f 954 955 956 957
f 958 959 956 955
f 960 961 956 959
f 962 957 956 961
f 960 963 964 961
f 921 918 964 963
f 917 965 964 918
f 962 961 964 965
f 962 966 967 957
f 946 953 967 966
f 952 968 967 953
f 954 957 967 968
g interior
f 917 924 969 965
f 915 947 969 924
f 946 966 969 947
f 962 965 969 966
g exterior
f 921 960 970 926
f 960 958 971 970
f 926 970 971 927
f 927 971 69 61
f 928 972 973 929
f 929 973 974 931
f 931 974 975 934
f 934 975 976 937
f 937 976 977 940
f 940 977 978 941
f 941 978 979 942
f 942 979 980 944
f 944 980 981 951
f 980 982 983 981
f 981 983 952 951
f 952 983 984 954
f 983 982 985 984
f 954 984 985 958
f 958 985 986 971
f 971 986 71 69
