# vtk DataFile Version 3.0
all-quad mesh
ASCII
DATASET UNSTRUCTURED_GRID
POINTS 1217 float
-1.14760028 -1.15043728 0
-0.85999096 -1.15043728 0
-0.85999096 -1.00663262 0
-1.00379562 -1.00663262 0
-0.85999096 -0.86282796 0
-1.00379562 -0.86282796 0
-1.14760028 -0.86282796 0
-1.14760028 0.86282796 0
-1.00379562 0.86282796 0
-1.00379562 1.00663262 0
-1.14760028 1.15043728 0
-0.85999096 0.86282796 0
-0.85999096 1.00663262 0
-0.85999096 1.15043728 0
-0.57238164 -0.28760932 0
-0.42857698 -0.28760932 0
-0.42857698 -0.14380466 0
-0.57238164 -0.14380466 0
-0.28477232 -0.28760932 0
-0.28477232 -0.14380466 0
-0.28477232 0 0
-0.42857698 0 0
-0.57238164 0 0
-0.42857698 0.14380466 0
-0.57238164 0.14380466 0
-0.28477232 0.14380466 0
-0.28477232 0.28760932 0
-0.42857698 0.28760932 0
-0.57238164 0.28760932 0
-0.28477232 -0.57521864 0
-0.14096766 -0.57521864 0
-0.14096766 -0.43141398 0
-0.28477232 -0.43141398 0
0.002837 -0.57521864 0
0.002837 -0.43141398 0
0.002837 -0.28760932 0
-0.14096766 -0.28760932 0
-0.14096766 -0.14380466 0
0.002837 0 0
-0.14096766 0.14380466 0
0.002837 0.28760932 0
-0.14096766 0.28760932 0
-0.14096766 0.43141398 0
-0.28477232 0.43141398 0
0.002837 0.43141398 0
0.002837 0.57521864 0
-0.14096766 0.57521864 0
-0.28477232 0.57521864 0
0.14664166 -0.57521864 0
0.14664166 -0.43141398 0
0.29044632 -0.57521864 0
0.29044632 -0.43141398 0
0.29044632 -0.28760932 0
0.14664166 -0.28760932 0
0.14664166 -0.14380466 0
0.29044632 -0.14380466 0
0.29044632 0 0
0.29044632 0.14380466 0
0.14664166 0.14380466 0
0.29044632 0.28760932 0
0.14664166 0.28760932 0
0.14664166 0.43141398 0
0.29044632 0.43141398 0
0.29044632 0.57521864 0
0.14664166 0.57521864 0
0.43425098 -0.28760932 0
0.43425098 -0.14380466 0
0.57805564 -0.28760932 0
0.57805564 -0.14380466 0
0.57805564 0 0
0.43425098 0 0
0.43425098 0.14380466 0
0.57805564 0.14380466 0
0.57805564 0.28760932 0
0.43425098 0.28760932 0
0.86566496 -1.15043728 0
1.15327428 -1.15043728 0
1.00946962 -1.00663262 0
0.86566496 -1.00663262 0
1.15327428 -0.86282796 0
1.00946962 -0.86282796 0
0.86566496 -0.86282796 0
0.86566496 0.86282796 0
1.00946962 0.86282796 0
1.00946962 1.00663262 0
0.86566496 1.00663262 0
1.15327428 0.86282796 0
1.15327428 1.15043728 0
0.86566496 1.15043728 0
-1.00379562 -0.7190233 0
-1.14760028 -0.7190233 0
-1.00379562 -0.57521864 0
-1.14760028 -0.57521864 0
-1.00379562 -0.43141398 0
-1.14760028 -0.43141398 0
-1.00379562 -0.28760932 0
-1.14760028 -0.28760932 0
-1.00379562 -0.21570699 0
-1.07569795 -0.21570699 0
-1.00379562 -0.14380466 0
-1.07569795 -0.14380466 0
-1.14760028 -0.14380466 0
-1.07569795 -0.07190233 0
-1.14760028 -0 0
-0.988771132442 -0.0620338782554 0
-1.00379562 -0 0
-0.988771132442 0.0620338782554 0
-1.07569795 0.07190233 0
-1.00379562 0.14380466 0
-1.07569795 0.14380466 0
-1.14760028 0.14380466 0
-1.07569795 0.21570699 0
-1.14760028 0.28760932 0
-1.00379562 0.21570699 0
-1.00379562 0.28760932 0
-1.00379562 0.43141398 0
-1.14760028 0.43141398 0
-1.00379562 0.57521864 0
-1.14760028 0.57521864 0
-1.00379562 0.7190233 0
-1.14760028 0.7190233 0
-0.85999096 -0.7190233 0
-0.85999096 -0.64712097 0
-0.93189329 -0.64712097 0
-0.85999096 -0.57521864 0
-0.93189329 -0.57521864 0
-0.93189329 -0.50331631 0
-0.844730479988 -0.493816872332 0
-0.85999096 -0.43141398 0
-0.862052052148 -0.343142859944 0
-0.936417630706 -0.359608184305 0
-0.878088322825 -0.28799545722 0
-0.940941971413 -0.28780238861 0
-0.941708700026 -0.215916418035 0
-0.879621780053 -0.21612584607 0
-0.88115523728 -0.144256234921 0
-0.936776215244 -0.126982264775 0
-0.868564498933 -0.071105512357 0
-0.862552711761 -0.036177729461 0
-0.873031243664 -0.0244291799046 0
-0.881276403202 -0.0360187965745 0
-0.856540924589 -0.00124994656497 0
-0.87526461603 -0.00109101367842 0
-0.893988307471 -0.000932080791866 0
-0.948891963735 -0.000466040395933 0
-0.940767027521 -0.0734596103769 0
-0.874859868106 -0.107680873639 0
-0.878391798754 0.0171291156809 0
-0.894157153735 -0.000466040395933 0
-0.862626443772 0.0347242717577 0
-0.868711962954 0.0706984900803 0
-0.881518981477 0.0353492450401 0
-0.894326 0 0
-0.874933600117 0.107477362501 0
-0.932423603159 0.0879855724834 0
-0.88115523728 0.144256234921 0
-0.936776215244 0.126982264775 0
-1.00379562 0.1114486115 0
-1.00379562 0.079092563 0
-0.94906081 0.0395462815 0
-1.00379562 0.0395462815 0
-0.948976386868 0.019540120552 0
-0.941708700026 0.215916418035 0
-0.879621780053 0.21612584607 0
-0.878088322825 0.28799545722 0
-0.940941971413 0.28780238861 0
-0.936417630706 0.359608184305 0
-0.862052052148 0.343142859944 0
-0.85999096 0.43141398 0
-0.844730479988 0.493816872332 0
-0.93189329 0.50331631 0
-0.85999096 0.57521864 0
-0.93189329 0.57521864 0
-0.93189329 0.64712097 0
-0.85999096 0.64712097 0
-0.85999096 0.7190233 0
-0.7161863 -1.15043728 0
-0.7161863 -1.00663262 0
-0.7161863 -0.86282796 0
-0.7161863 -0.79092563 0
-0.78808863 -0.79092563 0
-0.7161863 -0.7190233 0
-0.78808863 -0.7190233 0
-0.78808863 -0.64712097 0
-0.700668703833 -0.638047614754 0
-0.7161863 -0.57521864 0
-0.786173757633 -0.557345340639 0
-0.7161863 -0.508627703504 0
-0.7161863 -0.470020841752 0
-0.7415993245 -0.455419415876 0
-0.74544165 -0.479424851752 0
-0.7161863 -0.43141398 0
-0.737756999 -0.43141398 0
-0.759327698 -0.43141398 0
-0.767012349 -0.44081799 0
-0.774697 -0.450222 0
-0.77110214068 -0.43141398 0
-0.77230042712 -0.43768332 0
-0.782876583361 -0.43141398 0
-0.77878679168 -0.44081799 0
-0.82143377168 -0.43141398 0
-0.81938887584 -0.4469013345 0
-0.85999096 -0.452984679 0
-0.85999096 -0.474555378 0
-0.81734398 -0.462388689 0
-0.85999096 -0.524887009 0
-0.791005551885 -0.521254489292 0
-0.7161863 -0.541923171752 0
-0.74953144168 -0.43141398 0
-0.76430429584 -0.3650894365 0
-0.81242229168 -0.36347699 0
-0.7161863 -0.366701883 0
-0.7161863 -0.301989786 0
-0.77907715 -0.298764893 0
-0.841968 -0.29554 0
-0.7161863 -0.294799553 0
-0.779117851282 -0.293262201085 0
-0.7161863 -0.28760932 0
-0.779158552564 -0.287759509171 0
-0.842130805128 -0.287909698341 0
-0.842049402564 -0.291724849171 0
-0.860109563977 -0.28795257778 0
-0.859842645659 -0.29165288473 0
-0.877635888755 -0.291580920289 0
-0.877183454684 -0.295166383359 0
-0.859575727342 -0.295353191679 0
-0.868587207342 -0.363290181679 0
-0.840504749511 -0.36338358584 0
-0.779925348751 -0.215870371575 0
-0.843664397502 -0.21603375315 0
-0.7161863 -0.21570699 0
-0.7161863 -0.14380466 0
-0.780692144939 -0.14398123398 0
-0.845197989877 -0.14415780796 0
-0.863176613579 -0.14420702144 0
-0.861643088778 -0.21607979961 0
-0.780740647469 -0.13991047374 0
-0.845294994939 -0.13961140398 0
-0.7161863 -0.1402095435 0
-0.7161863 -0.136614427 0
-0.78078915 -0.1358397135 0
-0.845392 -0.135065 0
-0.7161863 -0.0683072135 0
-0.787897767889 -0.0674045438783 0
-0.7161863 -0 0
-0.799383746995 -6.75750497766e-05 0
-0.856978249466 -0.103085256179 0
-0.873629152472 -0.100530559221 0
-0.864216768315 -0.112042039481 0
-0.878693806011 -0.129955606085 0
-0.862042903006 -0.132510303043 0
-0.879924521646 -0.137105920503 0
-0.862609758292 -0.138358662241 0
-0.758292687377 -0.000374983969491 0
-0.737239493688 -0.000187491984745 0
-0.764392399692 0.0843537686952 0
-0.801842343688 0.0673450080153 0
-0.732335507134 0.0797969278464 0
-0.7161863 0.14380466 0
-0.780692144939 0.14398123398 0
-0.845197989877 0.14415780796 0
-0.845294994939 0.13961140398 0
-0.845392 0.135065 0
-0.863176613579 0.14420702144 0
-0.862917437201 0.140114992182 0
-0.880539879463 0.140618580384 0
-0.879924521646 0.136980925846 0
-0.862658260823 0.136022962923 0
-0.8743182423 0.103839707963 0
-0.864676161533 0.114248138642 0
-0.857051981477 0.10288174504 0
-0.83223439373 0.0510346398865 0
-0.807416805983 -0.00081246526723 0
-0.779925348751 0.215870371575 0
-0.843664397502 0.21603375315 0
-0.7161863 0.21570699 0
-0.7161863 0.28760932 0
-0.779158552564 0.287759509171 0
-0.842130805128 0.287909698341 0
-0.860109563977 0.28795257778 0
-0.861643088778 0.21607979961 0
-0.779117851282 0.291464642835 0
-0.842049402564 0.291724849171 0
-0.7161863 0.2912044365 0
-0.7161863 0.294799553 0
-0.77907715 0.2951697765 0
-0.841968 0.29554 0
-0.7161863 0.3631067665 0
-0.76430429584 0.36329187825 0
-0.7161863 0.43141398 0
-0.74953144168 0.43141398 0
-0.782876583361 0.43141398 0
-0.81242229168 0.36347699 0
-0.82143377168 0.43141398 0
-0.840278532476 0.365176317374 0
-0.868134773271 0.366875644749 0
-0.876278586543 0.302337309498 0
-0.859123293271 0.298938654749 0
-0.877183454684 0.295166383359 0
-0.859616428624 0.293445616265 0
-0.77110214068 0.43141398 0
-0.77230042712 0.43768332 0
-0.77878679168 0.44081799 0
-0.759327698 0.43141398 0
-0.767012349 0.44081799 0
-0.774697 0.450222 0
-0.737756999 0.43141398 0
-0.7415993245 0.455419415876 0
-0.7161863 0.470020841752 0
-0.7161863 0.508627703504 0
-0.74544165 0.479424851752 0
-0.7161863 0.541923171752 0
-0.783218437237 0.528097296795 0
-0.7161863 0.57521864 0
-0.786173757633 0.557345340639 0
-0.85999096 0.553647941 0
-0.85999096 0.532077242 0
-0.81734398 0.491149621 0
-0.85999096 0.481745611 0
-0.81938887584 0.4612818005 0
-0.78808863 0.64712097 0
-0.700668703833 0.638047614754 0
-0.7161863 0.7190233 0
-0.78808863 0.7190233 0
-0.78808863 0.79092563 0
-0.7161863 0.79092563 0
-0.7161863 0.86282796 0
-0.7161863 1.00663262 0
-0.7161863 1.15043728 0
-0.57238164 -1.15043728 0
-0.57238164 -1.00663262 0
-0.57238164 -0.93473029 0
-0.64428397 -0.93473029 0
-0.57238164 -0.86282796 0
-0.64428397 -0.86282796 0
-0.650396821105 -0.794186667117 0
-0.579812611798 -0.780123382415 0
-0.596833044419 -0.732067448469 0
-0.65273703794 -0.70797014175 0
-0.710218637221 -0.719675507423 0
-0.65352584082 -0.725871477946 0
-0.630841067297 -0.680166320735 0
-0.66945631861 -0.657819253712 0
-0.592225815983 -0.702513387759 0
-0.587618587546 -0.672959327049 0
-0.608156293773 -0.634461163525 0
-0.628694 -0.595963 0
-0.580000113773 -0.624088983525 0
-0.601054316386 -0.604839901762 0
-0.57238164 -0.57521864 0
-0.593952339 -0.57521864 0
-0.615523038 -0.57521864 0
-0.622108519 -0.58559082 0
-0.632499345168 -0.57521864 0
-0.631230896779 -0.582133426667 0
-0.649475652336 -0.57521864 0
-0.639084826168 -0.58559082 0
-0.682830976168 -0.57521864 0
-0.684830219635 -0.62815562762 0
-0.71320246861 -0.719349403712 0
-0.610928646168 -0.57521864 0
-0.638307627831 -0.497335166137 0
-0.682830976168 -0.541923171752 0
-0.57238164 -0.50331631 0
-0.57238164 -0.43141398 0
-0.64428397 -0.43141398 0
-0.693949417445 -0.553021661168 0
-0.64428397 -0.35951165 0
-0.73220870245 -0.35136277364 0
-0.64428397 -0.21570699 0
-0.64428397 -0.14380466 0
-0.64428397 -0.07190233 0
-0.732335507134 -0.0797969278464 0
-0.64428397 0.07190233 0
-0.64428397 0.14380466 0
-0.64428397 0.21570699 0
-0.64428397 0.35951165 0
-0.73220870245 0.35136277364 0
-0.57238164 0.43141398 0
-0.64428397 0.43141398 0
-0.649475652336 0.57521864 0
-0.682830976168 0.57521864 0
-0.693949417445 0.553021661168 0
-0.682830976168 0.541923171752 0
-0.638307627831 0.497335166137 0
-0.57238164 0.50331631 0
-0.57238164 0.57521864 0
-0.610928646168 0.57521864 0
-0.632499345168 0.57521864 0
-0.631230896779 0.582133426667 0
-0.639084826168 0.58559082 0
-0.615523038 0.57521864 0
-0.622108519 0.58559082 0
-0.628694 0.595963 0
-0.593952339 0.57521864 0
-0.601054316386 0.604839901762 0
-0.580000113773 0.624088983525 0
-0.587618587546 0.672959327049 0
-0.608156293773 0.634461163525 0
-0.592225815983 0.702513387759 0
-0.617413826044 0.681633787438 0
-0.596833044419 0.732067448469 0
-0.626671358314 0.728806411352 0
-0.65650967221 0.725545374235 0
-0.642601836105 0.660754187117 0
-0.686347986105 0.722284337117 0
-0.678420377956 0.645161878168 0
-0.65273703794 0.70797014175 0
-0.650396821105 0.794186667117 0
-0.579812611798 0.780123382415 0
-0.57238164 0.86282796 0
-0.64428397 0.86282796 0
-0.64428397 0.93473029 0
-0.57238164 0.93473029 0
-0.57238164 1.00663262 0
-0.57238164 1.15043728 0
-0.42857698 -1.15043728 0
-0.42857698 -1.00663262 0
-0.50047931 -0.93473029 0
-0.42857698 -0.86282796 0
-0.50764899105 -0.846344112153 0
-0.428032351783 -0.753154705948 0
-0.427940417791 -0.734641709802 0
-0.463625272987 -0.731839420506 0
-0.481513667581 -0.73969477393 0
-0.427848483799 -0.716128713656 0
-0.481421733588 -0.721181777784 0
-0.534994983378 -0.726234841912 0
-0.565914013899 -0.729151145191 0
-0.509368155065 -0.797405140471 0
-0.428304665891 -0.807991332974 0
-0.579934588357 -0.730473574988 0
-0.557464785868 -0.72835420845 0
-0.559293523912 -0.7253024723 0
-0.571442794179 -0.724836287494 0
-0.548972991689 -0.722716920956 0
-0.562951 -0.719199 0
-0.50386948835 -0.648194554948 0
-0.428212731899 -0.645673676828 0
-0.42857698 -0.57521864 0
-0.50047931 -0.57521864 0
-0.575284793773 -0.696079163525 0
-0.581834305081 -0.713674837627 0
-0.588383816388 -0.731270511728 0
-0.50047931 -0.50331631 0
-0.42857698 -0.43141398 0
-0.42857698 0.43141398 0
-0.50047931 0.50331631 0
-0.42857698 0.57521864 0
-0.50047931 0.57521864 0
-0.534994983378 0.726234841912 0
-0.565914013899 0.729151145191 0
-0.572597375499 0.725431574607 0
-0.548972991689 0.722716920956 0
-0.596221759309 0.728146228257 0
-0.595610474198 0.724225008046 0
-0.579280737099 0.721712004023 0
-0.562951 0.719199 0
-0.591614530872 0.698592167548 0
-0.582060020581 0.705461111698 0
-0.575284793773 0.696079163525 0
-0.50386948835 0.648194554948 0
-0.428212731899 0.645673676828 0
-0.427848483799 0.716128713656 0
-0.481421733588 0.721181777784 0
-0.463625272987 0.731839420506 0
-0.481513667581 0.73969477393 0
-0.427940417791 0.734641709802 0
-0.428032351783 0.753154705948 0
-0.428304665891 0.807991332974 0
-0.509368155065 0.797405140471 0
-0.42857698 0.86282796 0
-0.50764899105 0.846344112153 0
-0.50047931 0.93473029 0
-0.42857698 1.00663262 0
-0.42857698 1.15043728 0
-0.28477232 -1.15043728 0
-0.28477232 -1.00663262 0
-0.28477232 -0.93473029 0
-0.35667465 -0.93473029 0
-0.28477232 -0.86282796 0
-0.363775912782 -0.846314522044 0
-0.324274116391 -0.854571241022 0
-0.333555388195 -0.820484098002 0
-0.382338456391 -0.803148761022 0
-0.28477232 -0.837819434982 0
-0.28477232 -0.812810909965 0
-0.34283666 -0.786396954982 0
-0.400901 -0.759983 0
-0.414466675891 -0.756568852974 0
-0.405321561141 -0.805570046998 0
-0.396176446391 -0.854571241022 0
-0.369335988248 -0.729963729238 0
-0.398592236023 -0.723046221447 0
-0.406529455957 -0.739807537211 0
-0.385118494124 -0.744973364619 0
-0.334945407062 -0.755445234801 0
-0.28477232 -0.765917104982 0
-0.28477232 -0.7190233 0
-0.327054154124 -0.724493514619 0
-0.35649252595 -0.646397323414 0
-0.35649252595 0.646397323414 0
-0.28477232 0.7190233 0
-0.369335988248 0.729963729238 0
-0.363775912782 0.846314522044 0
-0.396176446391 0.854571241022 0
-0.405321561141 0.805570046998 0
-0.382338456391 0.803148761022 0
-0.414466675891 0.756568852974 0
-0.400901 0.759983 0
-0.34283666 0.786396954982 0
-0.333555388195 0.820484098002 0
-0.28477232 0.812810909965 0
-0.28477232 0.837819434982 0
-0.28477232 0.86282796 0
-0.324274116391 0.854571241022 0
-0.327054154124 0.724493514619 0
-0.334945407062 0.755445234801 0
-0.385118494124 0.744973364619 0
-0.28477232 0.765917104982 0
-0.406529455957 0.739807537211 0
-0.398592236023 0.723046221447 0
-0.35667465 0.93473029 0
-0.28477232 0.93473029 0
-0.28477232 1.00663262 0
-0.28477232 1.15043728 0
-0.14096766 -1.15043728 0
-0.14096766 -1.00663262 0
-0.21286999 -0.93473029 0
-0.14096766 -0.86282796 0
-0.225436138164 -0.849974420155 0
-0.241630922 -0.86282796 0
-0.191299291 -0.86282796 0
-0.1917275605 -0.845793617818 0
-0.242487461 -0.84724248 0
-0.14096766 -0.844344755635 0
-0.14096766 -0.825861551271 0
-0.19215583 -0.828759275635 0
-0.243344 -0.831657 0
-0.14096766 -0.772442425635 0
-0.18273976925 -0.773891287818 0
-0.14096766 -0.7190233 0
-0.1733237085 -0.7190233 0
-0.205679757 -0.7190233 0
-0.2245118785 -0.77534015 0
-0.2452260385 -0.7190233 0
-0.25464209925 -0.770628627491 0
-0.26405816 -0.822233954982 0
-0.2636298905 -0.842530957491 0
-0.263201621 -0.86282796 0
-0.21756464309 -0.736375008809 0
-0.21286999 -0.64712097 0
-0.14096766 -0.64712097 0
-0.14096766 0.64712097 0
-0.21286999 0.64712097 0
-0.14096766 0.7190233 0
-0.21756464309 0.736375008809 0
-0.241630922 0.7190233 0
-0.191299291 0.7190233 0
-0.1917275605 0.773891287818 0
-0.242487461 0.77534015 0
-0.14096766 0.772442425635 0
-0.14096766 0.825861551271 0
-0.19215583 0.828759275635 0
-0.243344 0.831657 0
-0.14096766 0.844344755635 0
-0.19352511875 0.845793617818 0
-0.14096766 0.86282796 0
-0.1948944075 0.86282796 0
-0.248821155 0.86282796 0
-0.2460825775 0.84724248 0
-0.2667967375 0.86282796 0
-0.26542744875 0.842530957491 0
-0.26405816 0.822233954982 0
-0.2636298905 0.770628627491 0
-0.263201621 0.7190233 0
-0.225436138164 0.849974420155 0
-0.21286999 0.93473029 0
-0.14096766 1.00663262 0
-0.14096766 1.15043728 0
0.002837 -1.15043728 0
0.002837 -1.00663262 0
0.0102795332275 -0.94584945022 0
-0.0741445516332 -0.942115191498 0
-0.0174798865329 -0.89236756599 0
-0.0727934506586 -0.860811681935 0
-0.0451366685958 -0.876589623962 0
-0.0401544074923 -0.856577546635 0
-0.0651952253293 -0.840976840967 0
-0.0151135896552 -0.872178252302 0
-0.0127472927776 -0.851988938614 0
-0.0351721463888 -0.836565469307 0
-0.057597 -0.821142 0
-0.09928233 -0.823501775635 0
-0.103081442665 -0.842660798301 0
-0.106880555329 -0.861819820967 0
-0.0670592127831 -0.736886588049 0
-0.104013436392 -0.727954944025 0
-0.101647883196 -0.77572835983 0
-0.0623281063916 -0.779014294025 0
-0.0336416263902 -0.782260206666 0
-0.00495514638878 -0.785506119307 0
0.002837 -0.7190233 0
-0.0321111063916 -0.727954944025 0
-0.06906533 -0.64712097 0
-0.06906533 0.64712097 0
0.002837 0.7190233 0
-0.0670592127831 0.736886588049 0
-0.0727934506586 0.860811681935 0
-0.106880555329 0.861819820967 0
-0.103081442665 0.842660798301 0
-0.0651952253293 0.840976840967 0
-0.09928233 0.823501775635 0
-0.057597 0.821142 0
-0.0351721463888 0.836565469307 0
-0.0401544074923 0.856577546635 0
-0.0127472927776 0.851988938614 0
-0.0151135896552 0.872178252302 0
-0.0174798865329 0.89236756599 0
-0.0451366685958 0.876589623962 0
-0.0321111063916 0.727954944025 0
-0.0336416263902 0.782260206666 0
-0.0623281063916 0.779014294025 0
-0.00495514638878 0.785506119307 0
-0.101647883196 0.77572835983 0
-0.104013436392 0.727954944025 0
-0.0741445516332 0.942115191498 0
0.0102795332275 0.94584945022 0
0.002837 1.00663262 0
0.002837 1.15043728 0
0.14664166 -1.15043728 0
0.14664166 -1.07853495 0
0.07473933 -1.07853495 0
0.14664166 -1.00663262 0
0.0797112237363 -0.989358308468 0
0.00655826661375 -0.97624103511 0
0.047566189241 -0.967403094672 0
0.0538582666138 -0.93681072511 0
0.0412741118682 -0.997995464234 0
0.0885741118682 -0.958565154234 0
0.097437 -0.927772 0
0.113176441868 -0.997995464234 0
0.117607885934 -0.957499802851 0
0.14664166 -0.956434451468 0
0.14664166 -0.906236282937 0
0.12203933 -0.917004141468 0
0.065119777259 -0.9055447114 0
0.0307598003031 -0.912326609752 0
0.0328025545179 -0.883317422799 0
0.0076613339925 -0.887842494395 0
-0.00360017665271 -0.919108508105 0
0.14664166 -0.884532121468 0
0.105880718629 -0.895038416434 0
0.14664166 -0.86282796 0
0.089722107259 -0.8730726914 0
0.0701498394867 -0.796881306413 0
0.0100276308702 -0.867653180707 0
0.163012631574 -0.798349433333 0
0.14664166 -0.7190233 0
0.07473933 -0.7190233 0
0.000858458402478 -0.875891309135 0
0.07473933 -0.64712097 0
0.14664166 -0.64712097 0
0.14664166 0.64712097 0
0.07473933 0.64712097 0
0.14664166 0.7190233 0
0.07473933 0.7190233 0
0.0328025545179 0.883317422799 0
0.0076613339925 0.887842494395 0
0.000858458402478 0.875891309135 0
0.0100276308702 0.867653180707 0
0.0701498394867 0.796881306413 0
0.163012631574 0.798349433333 0
0.14664166 0.86282796 0
0.089722107259 0.8730726914 0
0.0797112237363 0.989358308468 0
0.0412741118682 0.997995464234 0
0.047566189241 0.967403094672 0
0.0885741118682 0.958565154234 0
0.00655826661375 0.97624103511 0
0.0538582666138 0.93681072511 0
0.097437 0.927772 0
-0.00360017665271 0.919108508105 0
0.0307598003031 0.912326609752 0
0.065119777259 0.9055447114 0
0.12203933 0.917004141468 0
0.117607885934 0.957499802851 0
0.14664166 0.906236282937 0
0.14664166 0.956434451468 0
0.14664166 1.00663262 0
0.113176441868 0.997995464234 0
0.105880718629 0.895038416434 0
0.14664166 0.884532121468 0
0.07473933 1.07853495 0
0.14664166 1.07853495 0
0.14664166 1.15043728 0
0.29044632 -1.15043728 0
0.21854399 -1.07853495 0
0.29044632 -1.00663262 0
0.21854399 -1.00663262 0
0.229121157338 -0.870136955795 0
0.187881408669 -0.866482457898 0
0.174134825779 -0.879733732911 0
0.187881408669 -0.888186619366 0
0.22423621343 -0.942822673588 0
0.295362282694 -0.941537612988 0
0.300278245387 -0.876442605977 0
0.264699701363 -0.873289780886 0
0.257017872093 -0.872609048587 0
0.263357581396 -0.864940365725 0
0.252579078669 -0.859869977898 0
0.284914586849 -0.875081141379 0
0.280475793424 -0.86234207069 0
0.276037 -0.849603 0
0.292596416118 -0.875761873678 0
0.289714479778 -0.858784392858 0
0.298953166131 -0.855226715027 0
0.297628086875 -0.834010824077 0
0.286832543438 -0.841806912039 0
0.294037203438 -0.776517062039 0
0.286841873469 -0.780415106019 0
0.29044632 -0.7190233 0
0.2868512035 -0.7190233 0
0.283256087 -0.7190233 0
0.2796465435 -0.78431315 0
0.2149488735 -0.7190233 0
0.212337770222 -0.790929993608 0
0.225787455882 -0.735474858231 0
0.21854399 -0.64712097 0
0.21854399 0.64712097 0
0.29044632 0.7190233 0
0.225787455882 0.735474858231 0
0.153831893 0.7190233 0
0.2221391065 0.7190233 0
0.254485824969 0.780415106019 0
0.2149344465 0.78431315 0
0.294037203438 0.776517062039 0
0.297628086875 0.834010824077 0
0.286832543438 0.841806912039 0
0.276037 0.849603 0
0.298953166131 0.855226715027 0
0.289714479778 0.858784392858 0
0.300278245387 0.876442605977 0
0.292596416118 0.875761873678 0
0.284914586849 0.875081141379 0
0.280475793424 0.86234207069 0
0.257017872093 0.872609048587 0
0.263357581396 0.864940365725 0
0.229121157338 0.870136955795 0
0.252579078669 0.859869977898 0
0.187881408669 0.866482457898 0
0.192471903446 0.81315243962 0
0.1502367765 0.7190233 0
0.264699701363 0.873289780886 0
0.22423621343 0.942822673588 0
0.187881408669 0.888186619366 0
0.295362282694 0.941537612988 0
0.29044632 1.00663262 0
0.21854399 1.00663262 0
0.174134825779 0.879733732911 0
0.21854399 1.07853495 0
0.29044632 1.15043728 0
0.43425098 -1.15043728 0
0.43425098 -1.00663262 0
0.364806631347 -0.938133951494 0
0.43425098 -0.86282796 0
0.374843097513 -0.853335340226 0
0.420853706539 -0.864189424598 0
0.427552343269 -0.863508692299 0
0.42748143465 -0.801899195381 0
0.424126853269 -0.802242212299 0
0.43083601603 -0.801556178464 0
0.427421052059 -0.740284396928 0
0.42741052603 -0.740289698464 0
0.4274 -0.740295 0
0.426329919569 -0.720707138678 0
0.424639750716 -0.720933457191 0
0.425238787079 -0.701129880428 0
0.421868975402 -0.701577215917 0
0.418499163725 -0.702024551407 0
0.422949581863 -0.721159775703 0
0.354472741863 -0.710523925703 0
0.35849339265 -0.748838418871 0
0.362514043438 -0.787152912039 0
0.3615400097 -0.828734463663 0
0.360565975963 -0.870316015287 0
0.374329497787 -0.71723914811 0
0.36009560177 -0.642647615107 0
0.447066144127 -0.642980037768 0
0.43425098 -0.57521864 0
0.43425098 -0.43141398 0
0.43425098 0.43141398 0
0.43425098 0.57521864 0
0.447066144127 0.642980037768 0
0.36009560177 0.642647615107 0
0.425238787079 0.701129880428 0
0.374329497787 0.71723914811 0
0.411759540371 0.702919222385 0
0.418499163725 0.702024551407 0
0.422954844878 0.721157124935 0
0.419579770186 0.721607111193 0
0.426329919569 0.720707138678 0
0.427421052059 0.740284396928 0
0.42741052603 0.740289698464 0
0.4274 0.740295 0
0.43083601603 0.801556178464 0
0.429156093832 0.801729012307 0
0.43425098 0.86282796 0
0.430901661635 0.863168326149 0
0.427552343269 0.863508692299 0
0.427476171635 0.801901846149 0
0.363915294328 0.869975649138 0
0.363214668883 0.828564280588 0
0.362514043438 0.787152912039 0
0.356808486812 0.749062086616 0
0.351102930186 0.710971261193 0
0.374843097513 0.853335340226 0
0.364806631347 0.938133951494 0
0.43425098 1.00663262 0
0.43425098 1.15043728 0
0.57805564 -1.15043728 0
0.57805564 -1.00663262 0
0.57805564 -0.93473029 0
0.50615331 -0.93473029 0
0.57805564 -0.86282796 0
0.50615331 -0.86282796 0
0.4900855367 -0.708722826341 0
0.457662161889 -0.704926353385 0
0.447581791946 -0.716712367899 0
0.45875329438 -0.724503611634 0
0.505714611253 -0.789709082468 0
0.57805564 -0.79092563 0
0.57805564 -0.7190233 0
0.53407058835 -0.713873063171 0
0.526429745704 -0.712978392192 0
0.537276830469 -0.699994928128 0
0.52452826835 -0.691375413171 0
0.562773954708 -0.717233958043 0
0.560872477354 -0.695630979021 0
0.558971 -0.674028 0
0.570414797354 -0.718128629021 0
0.569464058677 -0.693612121721 0
0.57805564 -0.691593264421 0
0.57805564 -0.664163228843 0
0.56851332 -0.669095614421 0
0.57805564 -0.619690934421 0
0.57148692175 -0.622157127211 0
0.57805564 -0.57521864 0
0.5744605235 -0.57521864 0
0.570865407 -0.57521864 0
0.5649182035 -0.62462332 0
0.5025581935 -0.57521864 0
0.494327966647 -0.636641829311 0
0.514627313637 -0.591071489226 0
0.50615331 -0.50331631 0
0.57805564 -0.50331631 0
0.57805564 -0.43141398 0
0.57805564 0.43141398 0
0.57805564 0.50331631 0
0.50615331 0.50331631 0
0.57805564 0.57521864 0
0.514627313637 0.591071489226 0
0.441441213 0.57521864 0
0.5097484265 0.57521864 0
0.53913087325 0.622157127211 0
0.5002061065 0.62462332 0
0.57805564 0.619690934421 0
0.57805564 0.664163228843 0
0.56851332 0.669095614421 0
0.558971 0.674028 0
0.57805564 0.691593264421 0
0.571374269338 0.693835789466 0
0.57805564 0.7190233 0
0.574235218677 0.718575964511 0
0.570414797354 0.718128629021 0
0.564692898677 0.696078314511 0
0.530250167027 0.713425727681 0
0.539823778018 0.700293151788 0
0.4900855367 0.708722826341 0
0.52452826835 0.691375413171 0
0.457662161889 0.704926353385 0
0.475581794126 0.654786401773 0
0.4378460965 0.57521864 0
0.53407058835 0.713873063171 0
0.505714611253 0.789709082468 0
0.45875329438 0.724503611634 0
0.57805564 0.79092563 0
0.57805564 0.86282796 0
0.50615331 0.86282796 0
0.447581791946 0.716712367899 0
0.50615331 0.93473029 0
0.57805564 0.93473029 0
0.57805564 1.00663262 0
0.57805564 1.15043728 0
0.7218603 -1.15043728 0
0.7218603 -1.00663262 0
0.64995797 -0.93473029 0
0.7218603 -0.86282796 0
0.64995797 -0.86282796 0
0.64995797 -0.79092563 0
0.7218603 -0.79092563 0
0.7218603 -0.7190233 0
0.657852992094 -0.702874300268 0
0.689856646047 -0.710948800134 0
0.704819974522 -0.663654845275 0
0.684007496047 -0.649376150134 0
0.725632452997 -0.677933540417 0
0.729404605994 -0.636843780833 0
0.719783302997 -0.616360890417 0
0.710162 -0.595878 0
0.740819193557 -0.612024078414 0
0.726601712892 -0.601135320229 0
0.752233781121 -0.587204375994 0
0.733420122788 -0.585909750041 0
0.714606464455 -0.584615124089 0
0.712384232227 -0.590246562044 0
0.64410882 -0.630020614421 0
0.631031568024 -0.670484707278 0
0.617954316047 -0.710948800134 0
0.646331052227 -0.579916882044 0
0.645219936114 -0.604968748233 0
0.73543112131 -0.564489944076 0
0.727029791405 -0.553132728117 0
0.745843449738 -0.554427354069 0
0.739453118355 -0.521650332144 0
0.730656709178 -0.476532156072 0
0.654601504118 -0.505628440499 0
0.7218603 -0.43141398 0
0.64995797 -0.43141398 0
0.64995797 -0.35951165 0
0.734035632405 -0.372735977848 0
0.7218603 -0.28760932 0
0.7218603 -0.21570699 0
0.64995797 -0.21570699 0
0.7218603 -0.14380466 0
0.64995797 -0.14380466 0
0.64995797 -0.07190233 0
0.737910258909 -0.0799967963334 0
0.7218603 0 0
0.737910258909 0.0799967963334 0
0.64995797 0.07190233 0
0.7218603 0.14380466 0
0.64995797 0.14380466 0
0.64995797 0.21570699 0
0.7218603 0.21570699 0
0.7218603 0.28760932 0
0.734035632405 0.372735977848 0
0.64995797 0.35951165 0
0.7218603 0.43141398 0
0.64995797 0.43141398 0
0.739453118355 0.521650332144 0
0.745843449738 0.554427354069 0
0.73543112131 0.564489944076 0
0.727029791405 0.553132728117 0
0.752233781121 0.587204375994 0
0.733420122788 0.585909750041 0
0.714606464455 0.584615124089 0
0.646331052227 0.579916882044 0
0.654601504118 0.505628440499 0
0.730656709178 0.476532156072 0
0.729404605994 0.636843780833 0
0.725632452997 0.677933540417 0
0.704819974522 0.663654845275 0
0.719783302997 0.616360890417 0
0.7218603 0.7190233 0
0.689856646047 0.710948800134 0
0.657852992094 0.702874300268 0
0.684007496047 0.649376150134 0
0.710162 0.595878 0
0.617954316047 0.710948800134 0
0.631031568024 0.670484707278 0
0.64410882 0.630020614421 0
0.712384232227 0.590246562044 0
0.726601712892 0.601135320229 0
0.740819193557 0.612024078414 0
0.645219936114 0.604968748233 0
0.64995797 0.79092563 0
0.7218603 0.79092563 0
0.7218603 0.86282796 0
0.64995797 0.86282796 0
0.64995797 0.93473029 0
0.7218603 1.00663262 0
0.7218603 1.15043728 0
0.79376263 -0.79092563 0
0.86566496 -0.7190233 0
0.79376263 -0.7190233 0
0.80135600028 -0.650117403999 0
0.86566496 -0.64712097 0
0.86566496 -0.57521864 0
0.80894937056 -0.581211507997 0
0.775061453455 -0.43141398 0
0.748460876727 -0.43141398 0
0.745458290603 -0.461492764048 0
0.757257285905 -0.476532156072 0
0.807853005945 -0.50949246352 0
0.86566496 -0.50331631 0
0.86566496 -0.43141398 0
0.820363206727 -0.43141398 0
0.780816925227 -0.43141398 0
0.780198283486 -0.428119986667 0
0.777011226727 -0.42647299 0
0.786572397 -0.43141398 0
0.7827666985 -0.42647299 0
0.778961 -0.421532 0
0.8261186785 -0.43141398 0
0.822405846997 -0.406947370935 0
0.862044995495 -0.38742175187 0
0.85842503099 -0.343429523739 0
0.818693015495 -0.38248076187 0
0.856220480301 -0.31663835032 0
0.783380369167 -0.342817211668 0
0.854015929612 -0.289847176901 0
0.78672578872 -0.30666290294 0
0.7218603 -0.337940951 0
0.7218603 -0.388272582 0
0.75041065 -0.404902291 0
0.7218603 -0.409843281 0
0.749435763364 -0.4181581355 0
0.728468081481 -0.287721212845 0
0.791242005546 -0.288784194873 0
0.830213308511 -0.233513726596 0
0.79541854074 -0.215243106423 0
0.865008076282 -0.25178434677 0
0.876000222953 -0.213721516639 0
0.869184611477 -0.178243258319 0
0.862369 -0.142765 0
0.88479394029 -0.183271252534 0
0.877318960193 -0.169769168356 0
0.893587657626 -0.152820988429 0
0.877978328813 -0.147792994215 0
0.895786086961 -0.145208422403 0
0.879337856571 -0.142999131854 0
0.897984516295 -0.137595856377 0
0.880697384329 -0.138205269493 0
0.863410252364 -0.13881468261 0
0.862889626182 -0.140789841305 0
0.792635276182 -0.141309671305 0
0.769997847549 -0.192276108245 0
0.72516419074 -0.287665266423 0
0.880839688092 -0.116007147732 0
0.87226727399 -0.10521279341 0
0.889554405956 -0.104603380293 0
0.881124295617 -0.0716109042094 0
0.87206497742 -0.0361559306796 0
0.796566787846 -0.0708425887244 0
0.863005659224 -0.000700957149859 0
0.806875152409 -0.000939841629325 0
0.88121151546 0.0712800083784 0
0.889598015878 0.104437932378 0
0.880868761373 0.115896849122 0
0.872310883912 0.105047345494 0
0.897984516295 0.137595856377 0
0.880697384329 0.138205269493 0
0.863410252364 0.13881468261 0
0.792635276182 0.141309671305 0
0.796722905894 0.0704783984972 0
0.872108587342 0.0352895256143 0
0.879337856571 0.142999131854 0
0.862889626182 0.140789841305 0
0.895786086961 0.145208422403 0
0.893587657626 0.152820988429 0
0.877978328813 0.147792994215 0
0.862369 0.142765 0
0.88479394029 0.183271252534 0
0.877318960193 0.169769168356 0
0.876000222953 0.213721516639 0
0.869184611477 0.178243258319 0
0.865008076282 0.25178434677 0
0.816605455476 0.237162307535 0
0.854015929612 0.289847176901 0
0.78672578872 0.30666290294 0
0.7218603 0.2840142035 0
0.7218603 0.280419087 0
0.79211465 0.2115920435 0
0.7218603 0.2121118735 0
0.792374963091 0.176450857403 0
0.85842503099 0.343429523739 0
0.861462543975 0.380343411715 0
0.833962029317 0.394072941143 0
0.818693015495 0.38248076187 0
0.864500056961 0.41725729969 0
0.821730528481 0.419394649845 0
0.778961 0.421532 0
0.865082508481 0.424335639845 0
0.821046867604 0.425404314923 0
0.86566496 0.43141398 0
0.820363206727 0.43141398 0
0.775061453455 0.43141398 0
0.777011226727 0.42647299 0
0.748460876727 0.43141398 0
0.749435763364 0.42714592675 0
0.7218603 0.4278188635 0
0.7218603 0.424223747 0
0.75041065 0.4228778735 0
0.7218603 0.3559165335 0
0.780470572384 0.347510360218 0
0.856220480301 0.31663835032 0
0.807853005945 0.50949246352 0
0.757257285905 0.476532156072 0
0.86566496 0.50331631 0
0.86566496 0.57521864 0
0.80894937056 0.581211507997 0
0.745458290603 0.461492764048 0
0.80135600028 0.650117403999 0
0.86566496 0.64712097 0
0.86566496 0.7190233 0
0.79376263 0.7190233 0
0.79376263 0.79092563 0
1.00946962 -0.7190233 0
0.93756729 -0.64712097 0
1.00946962 -0.57521864 0
0.93756729 -0.57521864 0
0.93756729 -0.50331631 0
1.00946962 -0.50331631 0
1.00946962 -0.43141398 0
0.931591317211 -0.414460829395 0
0.970530468605 -0.422937404697 0
0.95706790495 -0.376596895177 0
0.912880158605 -0.361379414697 0
1.00125565129 -0.391814375656 0
0.993041682588 -0.352214771311 0
0.943605341294 -0.330256385656 0
0.894169 -0.308298 0
1.00125565129 -0.319912045656 0
0.946800953479 -0.309360929462 0
1.00946962 -0.28760932 0
0.949996565665 -0.288465473268 0
0.890523511329 -0.289321626536 0
0.892346255665 -0.298809813268 0
0.876297015495 -0.32586376187 0
0.88746257705 -0.374400583283 0
0.898628138605 -0.422937404697 0
0.87226972047 -0.289584401718 0
0.874283367983 -0.307724081794 0
0.946573513814 -0.215212895481 0
0.883261867141 -0.251521571587 0
1.00946962 -0.21570699 0
1.00946962 -0.14380466 0
0.947314613128 -0.123907343407 0
0.886992369624 -0.175658686508 0
0.873513221298 -0.264296773358 0
0.899861730459 -0.000524568866277 0
0.881433694842 -0.000612763008068 0
0.881330561767 -0.0242788100752 0
0.890493013038 -0.0360677365378 0
0.950151640479 -0.0706388918637 0
0.994445132442 -0.0620338782554 0
1.00946962 0 0
0.95466567523 -0.000262284433138 0
0.954700242615 0.00166641603343 0
0.89993086523 -0.000262284433138 0
1.00946962 0.0035951165 0
1.00946962 0.007190233 0
0.95473481 0.0035951165 0
0.9 0 0
1.00946962 0.0754974465 0
0.949600873851 0.072147599791 0
1.00946962 0.14380466 0
0.947314613128 0.123907343407 0
0.89060575773 0.0356400041892 0
0.886019726286 0.0175136205906 0
0.890523511329 0.289321626536 0
0.87226972047 0.289584401718 0
0.873513221298 0.264296773358 0
0.883261867141 0.251521571587 0
0.886992369624 0.175658686508 0
0.946573513814 0.215212895481 0
1.00946962 0.21570699 0
1.00946962 0.28760932 0
0.949996565665 0.288465473268 0
0.993041682588 0.352214771311 0
1.00125565129 0.391814375656 0
0.95706790495 0.376596895177 0
0.943605341294 0.330256385656 0
1.00946962 0.43141398 0
0.970530468605 0.422937404697 0
0.931591317211 0.414460829395 0
0.912880158605 0.361379414697 0
0.894169 0.308298 0
0.898628138605 0.422937404697 0
0.88746257705 0.374400583283 0
0.862044995495 0.38742175187 0
0.876297015495 0.32586376187 0
0.892346255665 0.298809813268 0
0.946800953479 0.309360929462 0
1.00125565129 0.319912045656 0
0.874283367983 0.307724081794 0
0.93756729 0.50331631 0
1.00946962 0.50331631 0
1.00946962 0.57521864 0
0.93756729 0.57521864 0
0.93756729 0.64712097 0
1.00946962 0.7190233 0
1.15327428 -0.7190233 0
1.15327428 -0.57521864 0
1.08137195 -0.50331631 0
1.15327428 -0.43141398 0
1.08137195 -0.43141398 0
1.08137195 -0.35951165 0
1.15327428 -0.28760932 0
1.08137195 -0.21570699 0
1.15327428 -0.14380466 0
1.08137195 -0.14380466 0
1.08137195 -0.07190233 0
1.15327428 -0 0
1.08137195 0.07190233 0
0.994445132442 0.0620338782554 0
1.15327428 0.14380466 0
1.08137195 0.14380466 0
1.08137195 0.21570699 0
1.15327428 0.28760932 0
1.08137195 0.35951165 0
1.15327428 0.43141398 0
1.08137195 0.43141398 0
1.08137195 0.50331631 0
1.15327428 0.57521864 0
1.15327428 0.7190233 0
CELLS 1080 5400
4 0 1 2 3
4 3 2 4 5
4 0 3 5 6
4 7 8 9 10
4 8 11 12 9
4 9 12 13 10
4 14 15 16 17
4 15 18 19 16
4 16 19 20 21
4 17 16 21 22
4 22 21 23 24
4 21 20 25 23
4 23 25 26 27
4 24 23 27 28
4 29 30 31 32
4 30 33 34 31
4 31 34 35 36
4 32 31 36 18
4 18 36 37 19
4 36 35 38 37
4 19 37 38 20
4 20 38 39 25
4 38 40 41 39
4 39 41 26 25
4 26 41 42 43
4 41 40 44 42
4 42 44 45 46
4 43 42 46 47
4 33 48 49 34
4 48 50 51 49
4 49 51 52 53
4 34 49 53 35
4 35 53 54 38
4 53 52 55 54
4 54 55 56 38
4 38 56 57 58
4 58 57 59 60
4 38 58 60 40
4 40 60 61 44
4 60 59 62 61
4 61 62 63 64
4 44 61 64 45
4 52 65 66 55
4 65 67 68 66
4 66 68 69 70
4 55 66 70 56
4 56 70 71 57
4 70 69 72 71
4 71 72 73 74
4 57 71 74 59
4 75 76 77 78
4 76 79 80 77
4 77 80 81 78
4 82 83 84 85
4 83 86 87 84
4 85 84 87 88
4 6 5 89 90
4 90 89 91 92
4 92 91 93 94
4 94 93 95 96
4 96 95 97 98
4 98 97 99 100
4 96 98 100 101
4 101 100 102 103
4 100 99 104 102
4 102 104 105 103
4 103 105 106 107
4 107 106 108 109
4 103 107 109 110
4 110 109 111 112
4 109 108 113 111
4 111 113 114 112
4 112 114 115 116
4 116 115 117 118
4 118 117 119 120
4 120 119 8 7
4 5 4 121 89
4 89 121 122 123
4 123 122 124 125
4 89 123 125 91
4 91 125 126 93
4 125 124 127 126
4 126 127 128 93
4 93 128 129 130
4 130 129 131 132
4 93 130 132 95
4 95 132 133 97
4 132 131 134 133
4 133 134 135 136
4 97 133 136 99
4 137 138 139 140
4 141 142 139 138
4 143 140 139 142
4 143 144 145 140
4 105 104 145 144
4 99 136 145 104
4 135 146 145 136
4 137 140 145 146
4 143 142 147 148
4 141 149 147 142
4 150 151 147 149
4 152 148 147 151
4 150 153 154 151
4 155 156 154 153
4 108 157 154 156
4 158 159 154 157
4 152 151 154 159
4 158 160 161 159
4 105 144 161 160
4 143 148 161 144
4 152 159 161 148
4 108 156 162 113
4 156 155 163 162
4 162 163 164 165
4 113 162 165 114
4 114 165 166 115
4 165 164 167 166
4 166 167 168 115
4 115 168 169 170
4 170 169 171 172
4 115 170 172 117
4 117 172 173 119
4 172 171 174 173
4 173 174 175 119
4 119 175 11 8
4 1 176 177 2
4 2 177 178 4
4 4 178 179 180
4 180 179 181 182
4 4 180 182 121
4 121 182 183 122
4 182 181 184 183
4 183 184 185 186
4 122 183 186 124
4 187 188 189 190
4 191 192 189 188
4 193 194 189 192
4 195 190 189 194
4 193 196 197 194
4 198 199 197 196
4 195 194 197 199
4 198 200 201 199
4 128 202 201 200
4 203 204 201 202
4 195 199 201 204
4 203 205 206 204
4 124 186 206 205
4 185 207 206 186
4 187 190 206 207
4 195 204 206 190
4 198 208 209 210
4 191 211 209 208
4 212 213 209 211
4 214 210 209 213
4 212 215 216 213
4 217 218 216 215
4 219 220 216 218
4 214 213 216 220
4 219 221 222 220
4 131 223 222 221
4 224 225 222 223
4 214 220 222 225
4 224 226 227 225
4 128 200 227 226
4 198 210 227 200
4 214 225 227 210
4 219 218 228 229
4 217 230 228 218
4 231 232 228 230
4 233 229 228 232
4 233 234 235 229
4 135 134 235 234
4 131 221 235 134
4 219 229 235 221
4 233 232 236 237
4 231 238 236 232
4 239 240 236 238
4 241 237 236 240
4 239 242 243 240
4 244 245 243 242
4 141 138 243 245
4 137 246 243 138
4 241 240 243 246
4 137 247 248 246
4 249 250 248 247
4 241 246 248 250
4 249 251 252 250
4 135 234 252 251
4 233 237 252 234
4 241 250 252 237
4 253 254 255 256
4 244 257 255 254
4 258 259 255 257
4 260 261 255 259
4 262 256 255 261
4 260 263 264 261
4 155 265 264 263
4 266 267 264 265
4 262 261 264 267
4 266 268 269 267
4 150 270 269 268
4 262 267 269 270
4 150 149 271 270
4 141 272 271 149
4 253 256 271 272
4 262 270 271 256
4 260 259 273 274
4 258 275 273 259
4 276 277 273 275
4 278 274 273 277
4 278 279 280 274
4 164 163 280 279
4 155 263 280 163
4 260 274 280 263
4 278 277 281 282
4 276 283 281 277
4 284 285 281 283
4 286 282 281 285
4 284 287 288 285
4 289 290 288 287
4 291 292 288 290
4 286 285 288 292
4 291 293 294 292
4 168 295 294 293
4 296 297 294 295
4 286 292 294 297
4 296 298 299 297
4 164 279 299 298
4 278 282 299 279
4 286 297 299 282
4 291 300 301 302
4 303 304 301 300
4 305 302 301 304
4 303 306 307 304
4 289 308 307 306
4 309 310 307 308
4 305 304 307 310
4 309 311 312 310
4 313 314 312 311
4 171 315 312 314
4 316 317 312 315
4 305 310 312 317
4 316 318 319 317
4 168 293 319 318
4 291 302 319 293
4 305 317 319 302
4 171 314 320 174
4 314 313 321 320
4 320 321 322 323
4 174 320 323 175
4 175 323 324 11
4 323 322 325 324
4 324 325 326 11
4 11 326 327 12
4 12 327 328 13
4 176 329 330 177
4 177 330 331 332
4 332 331 333 334
4 177 332 334 178
4 178 334 335 179
4 334 333 336 335
4 335 336 337 338
4 179 335 338 181
4 339 340 341 342
4 337 343 341 340
4 344 345 341 343
4 346 342 341 345
4 344 347 348 345
4 349 350 348 347
4 351 352 348 350
4 346 345 348 352
4 351 353 354 352
4 355 356 354 353
4 346 352 354 356
4 355 357 358 356
4 185 184 358 357
4 181 359 358 184
4 339 342 358 359
4 346 356 358 342
4 355 360 361 362
4 349 363 361 360
4 364 365 361 363
4 191 188 361 365
4 187 362 361 188
4 187 207 366 362
4 185 357 366 207
4 355 362 366 357
4 191 365 367 368
4 365 364 14 367
4 368 367 14 217
4 217 14 369 230
4 14 17 370 369
4 369 370 231 230
4 231 370 371 372
4 370 17 22 371
4 372 371 22 244
4 244 22 373 257
4 22 24 374 373
4 373 374 258 257
4 258 374 375 275
4 374 24 28 375
4 275 375 28 276
4 276 28 376 377
4 28 378 379 376
4 376 379 289 377
4 380 381 382 383
4 313 311 382 381
4 309 383 382 311
4 309 308 384 383
4 289 379 384 308
4 378 385 384 379
4 386 387 384 385
4 380 383 384 387
4 380 388 389 390
4 391 392 389 388
4 393 390 389 392
4 391 394 395 392
4 386 396 395 394
4 397 398 395 396
4 393 392 395 398
4 397 399 400 398
4 401 402 400 399
4 403 404 400 402
4 393 398 400 404
4 403 405 406 404
4 322 321 406 405
4 313 381 406 321
4 380 390 406 381
4 393 404 406 390
4 322 407 408 325
4 407 401 409 408
4 408 409 410 411
4 325 408 411 326
4 326 411 412 327
4 411 410 413 412
4 412 413 414 327
4 327 414 415 328
4 329 416 417 330
4 330 417 418 331
4 417 419 420 418
4 418 420 333 331
4 421 422 423 424
4 425 426 423 422
4 427 424 423 426
4 427 428 429 424
4 337 336 429 428
4 333 420 429 336
4 419 430 429 420
4 421 424 429 430
4 431 432 433 434
4 427 435 433 432
4 436 434 433 435
4 427 426 437 435
4 425 438 437 426
4 439 440 437 438
4 349 347 437 440
4 344 441 437 347
4 436 435 437 441
4 344 343 442 441
4 337 443 442 343
4 431 434 442 443
4 436 441 442 434
4 349 440 444 363
4 440 439 445 444
4 363 444 445 364
4 364 445 15 14
4 28 27 446 378
4 378 446 447 385
4 446 448 449 447
4 447 449 386 385
4 450 451 452 453
4 401 454 452 451
4 455 456 452 454
4 457 453 452 456
4 455 458 459 456
4 397 460 459 458
4 457 456 459 460
4 397 396 461 460
4 386 449 461 396
4 448 462 461 449
4 463 464 461 462
4 450 453 461 464
4 457 460 461 453
4 450 464 465 466
4 463 467 465 464
4 468 466 465 467
4 468 469 470 466
4 471 472 470 469
4 410 409 470 472
4 401 451 470 409
4 450 466 470 451
4 410 472 473 413
4 472 471 474 473
4 413 473 474 414
4 414 474 475 415
4 416 476 477 417
4 417 477 478 479
4 479 478 480 481
4 417 479 481 419
4 481 482 483 484
4 480 485 483 482
4 486 487 483 485
4 488 484 483 487
4 488 489 490 484
4 421 430 490 489
4 419 491 490 430
4 481 484 490 491
4 492 493 494 495
4 425 422 494 493
4 421 489 494 422
4 488 495 494 489
4 488 487 496 495
4 486 497 496 487
4 498 499 496 497
4 492 495 496 499
4 425 492 500 438
4 492 498 29 500
4 438 500 29 439
4 439 29 32 445
4 445 32 18 15
4 27 26 43 446
4 446 43 47 448
4 448 47 501 462
4 47 502 503 501
4 501 503 463 462
4 504 505 506 507
4 471 469 506 505
4 468 508 506 469
4 509 507 506 508
4 509 510 511 507
4 512 513 511 510
4 514 515 511 513
4 504 507 511 515
4 503 516 517 518
4 502 519 517 516
4 512 510 517 519
4 509 518 517 510
4 509 508 520 518
4 468 467 520 508
4 463 521 520 467
4 503 518 520 521
4 471 504 522 474
4 504 514 523 522
4 522 523 524 474
4 474 524 525 475
4 476 526 527 477
4 477 527 528 478
4 527 529 530 528
4 528 530 480 478
4 531 532 533 534
4 529 535 533 532
4 536 537 533 535
4 538 534 533 537
4 536 539 540 537
4 541 542 540 539
4 543 544 540 542
4 538 537 540 544
4 543 545 546 544
4 498 497 546 545
4 486 547 546 497
4 538 544 546 547
4 486 485 548 547
4 480 549 548 485
4 531 534 548 549
4 538 547 548 534
4 498 550 551 29
4 550 541 552 551
4 551 552 30 29
4 47 46 553 554
4 554 553 555 556
4 47 554 556 502
4 557 558 559 560
4 555 561 559 558
4 562 563 559 561
4 564 560 559 563
4 562 565 566 563
4 567 568 566 565
4 569 570 566 568
4 564 563 566 570
4 569 571 572 570
4 514 513 572 571
4 512 573 572 513
4 564 570 572 573
4 512 519 574 573
4 502 575 574 519
4 557 560 574 575
4 564 573 574 560
4 514 576 577 523
4 576 567 578 577
4 523 577 578 524
4 524 578 579 525
4 526 580 581 527
4 527 581 582 583
4 583 582 584 585
4 527 583 585 529
4 585 586 587 588
4 584 589 587 586
4 590 591 587 589
4 592 588 587 591
4 592 593 594 588
4 536 535 594 593
4 529 595 594 535
4 585 588 594 595
4 596 597 598 599
4 541 539 598 597
4 536 593 598 539
4 592 599 598 593
4 592 591 600 599
4 590 601 600 591
4 602 603 600 601
4 596 599 600 603
4 541 596 604 552
4 596 602 33 604
4 552 604 33 30
4 46 45 605 553
4 45 606 607 605
4 605 607 555 553
4 608 609 610 611
4 567 565 610 609
4 562 612 610 565
4 613 611 610 612
4 613 614 615 611
4 616 617 615 614
4 618 619 615 617
4 608 611 615 619
4 607 620 621 622
4 606 623 621 620
4 616 614 621 623
4 613 622 621 614
4 613 612 624 622
4 562 561 624 612
4 555 625 624 561
4 607 622 624 625
4 567 608 626 578
4 608 618 627 626
4 626 627 628 578
4 578 628 629 579
4 580 630 631 632
4 632 631 633 634
4 580 632 634 581
4 582 635 636 637
4 581 638 636 635
4 634 639 636 638
4 640 637 636 639
4 634 641 642 639
4 633 643 642 641
4 644 645 642 643
4 640 639 642 645
4 640 646 647 637
4 648 649 647 646
4 584 650 647 649
4 582 637 647 650
4 644 651 652 645
4 653 654 652 651
4 648 646 652 654
4 640 645 652 646
4 648 654 655 656
4 653 657 655 654
4 658 659 655 657
4 602 601 655 659
4 590 656 655 601
4 590 589 660 656
4 584 649 660 589
4 648 656 660 649
4 602 659 661 33
4 659 658 662 661
4 661 662 48 33
4 45 64 663 664
4 664 663 665 666
4 45 664 666 606
4 667 668 669 670
4 618 617 669 668
4 616 670 669 617
4 616 623 671 670
4 606 666 671 623
4 665 672 671 666
4 673 674 671 672
4 667 670 671 674
4 675 676 677 678
4 628 679 677 676
4 627 680 677 679
4 681 678 677 680
4 627 682 683 680
4 618 668 683 682
4 667 684 683 668
4 681 680 683 684
4 681 685 686 678
4 687 688 686 685
4 689 690 686 688
4 675 678 686 690
4 667 674 691 684
4 673 692 691 674
4 687 685 691 692
4 681 684 691 685
4 628 675 693 629
4 675 689 694 693
4 693 694 695 629
4 630 696 697 631
4 696 698 699 697
4 697 699 633 631
4 700 701 702 703
4 653 651 702 701
4 644 703 702 651
4 644 643 704 703
4 633 699 704 643
4 698 705 704 699
4 706 707 704 705
4 700 703 704 707
4 700 708 709 710
4 711 712 709 708
4 713 710 709 712
4 711 714 715 712
4 706 716 715 714
4 717 718 715 716
4 713 712 715 718
4 717 719 720 718
4 721 722 720 719
4 723 724 720 722
4 713 718 720 724
4 723 725 726 724
4 658 657 726 725
4 653 701 726 657
4 700 710 726 701
4 713 724 726 710
4 658 727 728 662
4 727 721 50 728
4 662 728 50 48
4 64 63 729 663
4 63 730 731 729
4 729 731 665 663
4 732 733 734 735
4 730 736 734 733
4 737 738 734 736
4 739 735 734 738
4 737 740 741 738
4 742 743 741 740
4 744 745 741 743
4 739 738 741 745
4 744 746 747 745
4 748 749 747 746
4 739 745 747 749
4 748 750 751 749
4 673 672 751 750
4 665 752 751 672
4 732 735 751 752
4 739 749 751 735
4 748 753 754 755
4 742 756 754 753
4 757 758 754 756
4 689 688 754 758
4 687 755 754 688
4 687 692 759 755
4 673 750 759 692
4 748 755 759 750
4 689 758 760 694
4 758 757 761 760
4 694 760 761 695
4 696 762 763 698
4 698 763 764 705
4 763 765 766 764
4 764 766 706 705
4 767 768 769 770
4 765 771 769 768
4 772 773 769 771
4 774 770 769 773
4 772 775 776 773
4 777 778 776 775
4 779 780 776 778
4 774 773 776 780
4 779 781 782 780
4 721 719 782 781
4 717 783 782 719
4 774 780 782 783
4 717 716 784 783
4 706 785 784 716
4 767 770 784 785
4 774 783 784 770
4 721 786 787 50
4 786 777 788 787
4 787 788 789 50
4 50 789 790 51
4 51 790 65 52
4 59 74 791 62
4 62 791 792 63
4 63 792 793 794
4 794 793 795 796
4 63 794 796 730
4 797 798 799 800
4 795 801 799 798
4 802 803 799 801
4 804 800 799 803
4 802 805 806 803
4 807 808 806 805
4 809 810 806 808
4 804 803 806 810
4 809 811 812 810
4 742 740 812 811
4 737 813 812 740
4 804 810 812 813
4 737 736 814 813
4 730 815 814 736
4 797 800 814 815
4 804 813 814 800
4 742 816 817 756
4 816 807 818 817
4 756 817 818 757
4 757 818 819 761
4 762 820 821 763
4 763 821 822 823
4 823 822 824 825
4 763 823 825 765
4 826 827 828 829
4 777 775 828 827
4 772 829 828 775
4 772 771 830 829
4 765 825 830 771
4 824 831 830 825
4 832 833 830 831
4 826 829 830 833
4 826 834 835 836
4 837 838 835 834
4 839 836 835 838
4 837 840 841 838
4 832 842 841 840
4 843 844 841 842
4 839 838 841 844
4 843 845 846 844
4 847 848 846 845
4 849 850 846 848
4 839 844 846 850
4 849 851 852 850
4 789 788 852 851
4 777 827 852 788
4 826 836 852 827
4 839 850 852 836
4 789 853 854 790
4 853 847 855 854
4 854 855 856 790
4 790 856 67 65
4 74 73 857 791
4 791 857 858 859
4 859 858 860 861
4 791 859 861 792
4 862 863 864 865
4 860 866 864 863
4 867 868 864 866
4 869 865 864 868
4 867 870 871 868
4 872 873 871 870
4 874 875 871 873
4 869 868 871 875
4 874 876 877 875
4 878 879 877 876
4 869 875 877 879
4 878 880 881 879
4 795 793 881 880
4 792 882 881 793
4 862 865 881 882
4 869 879 881 865
4 878 883 884 885
4 872 886 884 883
4 887 888 884 886
4 807 805 884 888
4 802 885 884 805
4 802 801 889 885
4 795 880 889 801
4 878 885 889 880
4 807 888 890 818
4 888 887 891 890
4 890 891 892 818
4 818 892 893 819
4 820 894 895 821
4 821 895 896 822
4 895 897 898 896
4 896 898 824 822
4 824 898 899 831
4 898 897 900 899
4 899 900 901 902
4 831 899 902 832
4 902 903 904 905
4 901 906 904 903
4 907 908 904 906
4 909 905 904 908
4 907 910 911 908
4 912 913 911 910
4 914 915 911 913
4 909 908 911 915
4 909 916 917 905
4 843 842 917 916
4 832 918 917 842
4 902 905 917 918
4 914 919 920 915
4 847 845 920 919
4 843 916 920 845
4 909 915 920 916
4 914 913 921 922
4 912 923 921 913
4 924 922 921 923
4 924 925 926 922
4 927 928 926 925
4 856 855 926 928
4 847 919 926 855
4 914 922 926 919
4 856 928 929 67
4 928 927 930 929
4 929 930 931 67
4 67 931 932 933
4 933 932 934 935
4 67 933 935 68
4 68 935 936 69
4 935 934 937 936
4 936 937 938 69
4 69 938 939 940
4 940 939 941 942
4 69 940 942 72
4 72 942 943 73
4 942 941 944 943
4 943 944 945 73
4 73 945 946 947
4 947 946 948 949
4 73 947 949 857
4 950 951 952 953
4 954 955 952 951
4 956 953 952 955
4 956 957 958 953
4 860 858 958 957
4 857 949 958 858
4 948 959 958 949
4 950 953 958 959
4 960 961 962 963
4 964 965 962 961
4 966 967 962 965
4 968 963 962 967
4 966 969 970 967
4 872 870 970 969
4 867 971 970 870
4 968 967 970 971
4 968 972 973 963
4 956 955 973 972
4 954 974 973 955
4 960 963 973 974
4 867 866 975 971
4 860 957 975 866
4 956 972 975 957
4 968 971 975 972
4 872 966 976 886
4 966 964 977 976
4 976 977 978 979
4 886 976 979 887
4 887 979 980 891
4 979 978 981 980
4 891 980 981 892
4 892 981 982 893
4 894 75 78 895
4 895 78 81 897
4 897 81 983 900
4 81 984 985 983
4 983 985 901 900
4 901 985 986 907
4 985 984 987 986
4 986 987 988 989
4 907 986 989 912
4 990 991 992 993
4 927 925 992 991
4 924 993 992 925
4 924 923 994 993
4 912 989 994 923
4 988 995 994 989
4 996 997 994 995
4 990 993 994 997
4 990 998 999 1000
4 1001 1002 999 998
4 1003 1000 999 1002
4 1001 1004 1005 1002
4 996 1006 1005 1004
4 1007 1008 1005 1006
4 1003 1002 1005 1008
4 1007 1009 1010 1008
4 1011 1012 1010 1009
4 931 1013 1010 1012
4 1014 1015 1010 1013
4 1003 1008 1010 1015
4 1014 1016 1017 1015
4 927 991 1017 1016
4 990 1000 1017 991
4 1003 1015 1017 1000
4 1018 1019 1020 1021
4 1011 1022 1020 1019
4 1023 1024 1020 1022
4 1025 1021 1020 1024
4 1023 1026 1027 1024
4 1028 1029 1027 1026
4 1025 1024 1027 1029
4 1028 1030 1031 1029
4 1032 1033 1031 1030
4 1034 1035 1031 1033
4 1025 1029 1031 1035
4 1034 1036 1037 1035
4 934 932 1037 1036
4 931 1038 1037 932
4 1018 1021 1037 1038
4 1025 1035 1037 1021
4 1034 1033 1039 1040
4 1032 1041 1039 1033
4 1042 1040 1039 1041
4 1042 1043 1044 1040
4 1045 1046 1044 1043
4 938 937 1044 1046
4 934 1036 1044 937
4 1034 1040 1044 1036
4 1047 1048 1049 1050
4 1051 1052 1049 1048
4 1053 1050 1049 1052
4 1053 1054 1055 1050
4 941 939 1055 1054
4 938 1046 1055 939
4 1045 1056 1055 1046
4 1047 1050 1055 1056
4 1053 1052 1057 1058
4 1051 1059 1057 1052
4 1060 1061 1057 1059
4 1062 1058 1057 1061
4 1060 1063 1064 1061
4 1065 1066 1064 1063
4 1062 1061 1064 1066
4 1065 1067 1068 1066
4 1069 1070 1068 1067
4 945 1071 1068 1070
4 1072 1073 1068 1071
4 1062 1066 1068 1073
4 1072 1074 1075 1073
4 941 1054 1075 1074
4 1053 1058 1075 1054
4 1062 1073 1075 1058
4 1076 1077 1078 1079
4 1080 1081 1078 1077
4 1082 1079 1078 1081
4 1080 1083 1084 1081
4 1085 1086 1084 1083
4 1087 1088 1084 1086
4 1082 1081 1084 1088
4 1087 1089 1090 1088
4 948 1091 1090 1089
4 1092 1093 1090 1091
4 1082 1088 1090 1093
4 1092 1094 1095 1093
4 945 1070 1095 1094
4 1069 1096 1095 1070
4 1076 1079 1095 1096
4 1082 1093 1095 1079
4 1087 1086 1097 1098
4 1085 1099 1097 1086
4 1100 1101 1097 1099
4 954 951 1097 1101
4 950 1098 1097 951
4 950 959 1102 1098
4 948 1089 1102 959
4 1087 1098 1102 1089
4 954 1101 1103 960
4 1101 1100 1104 1103
4 1103 1104 1105 1106
4 960 1103 1106 964
4 964 1106 1107 977
4 1106 1105 82 1107
4 977 1107 82 978
4 978 82 85 981
4 981 85 88 982
4 81 80 1108 984
4 984 1108 1109 987
4 1108 1110 1111 1109
4 1109 1111 988 987
4 988 1111 1112 995
4 1111 1110 1113 1112
4 1112 1113 1114 1115
4 995 1112 1115 996
4 1115 1116 1117 1118
4 1114 1119 1117 1116
4 1120 1121 1117 1119
4 1122 1118 1117 1121
4 1120 1123 1124 1121
4 1125 1126 1124 1123
4 1127 1128 1124 1126
4 1122 1121 1124 1128
4 1122 1129 1130 1118
4 1007 1006 1130 1129
4 996 1131 1130 1006
4 1115 1118 1130 1131
4 1127 1132 1133 1128
4 1011 1009 1133 1132
4 1007 1129 1133 1009
4 1122 1128 1133 1129
4 1127 1126 1134 1135
4 1125 1136 1134 1126
4 1137 1138 1134 1136
4 1032 1139 1134 1138
4 1023 1135 1134 1139
4 1023 1022 1140 1135
4 1011 1132 1140 1022
4 1127 1135 1140 1132
4 1141 1142 1143 1144
4 1045 1043 1143 1142
4 1042 1144 1143 1043
4 1042 1041 1145 1144
4 1032 1138 1145 1041
4 1137 1146 1145 1138
4 1147 1148 1145 1146
4 1141 1144 1145 1148
4 1141 1148 1149 1150
4 1147 1151 1149 1148
4 1152 1153 1149 1151
4 1154 1150 1149 1153
4 1152 1155 1156 1153
4 1157 1158 1156 1155
4 1051 1048 1156 1158
4 1047 1159 1156 1048
4 1154 1153 1156 1159
4 1047 1056 1160 1159
4 1045 1142 1160 1056
4 1141 1150 1160 1142
4 1154 1159 1160 1150
4 1161 1162 1163 1164
4 1069 1067 1163 1162
4 1065 1164 1163 1067
4 1065 1165 1166 1164
4 1051 1158 1166 1165
4 1157 1167 1166 1158
4 1168 1169 1166 1167
4 1161 1164 1166 1169
4 1170 1171 1172 1173
4 1174 1175 1172 1171
4 1176 1177 1172 1175
4 1178 1173 1172 1177
4 1176 1179 1180 1177
4 1085 1181 1180 1179
4 1076 1182 1180 1181
4 1178 1177 1180 1182
4 1178 1183 1184 1173
4 1161 1169 1184 1183
4 1168 1185 1184 1169
4 1170 1173 1184 1185
4 1076 1096 1186 1182
4 1069 1162 1186 1096
4 1161 1183 1186 1162
4 1178 1182 1186 1183
4 1085 1176 1187 1099
4 1176 1174 1188 1187
4 1187 1188 1189 1190
4 1099 1187 1190 1100
4 1100 1190 1191 1104
4 1190 1189 1192 1191
4 1104 1191 1192 1105
4 1105 1192 83 82
4 80 79 1193 1108
4 1108 1193 1194 1110
4 1110 1194 1195 1113
4 1194 1196 1197 1195
4 1195 1197 1114 1113
4 1114 1197 1198 1120
4 1197 1196 1199 1198
4 1120 1198 1199 1125
4 1125 1199 1200 1136
4 1199 1201 1202 1200
4 1200 1202 1137 1136
4 1137 1202 1203 1146
4 1202 1201 1204 1203
4 1146 1203 1204 1147
4 1147 1204 1205 1206
4 1204 1207 1208 1205
4 1205 1208 1157 1206
4 1157 1208 1209 1167
4 1208 1207 1210 1209
4 1167 1209 1210 1168
4 1168 1210 1211 1170
4 1210 1212 1213 1211
4 1211 1213 1174 1170
4 1174 1213 1214 1188
4 1213 1212 1215 1214
4 1188 1214 1215 1189
4 1189 1215 1216 1192
4 1192 1216 86 83
CELL_TYPES 1080
9
9
9
9
9
9
9
9
9
9
9
9
9
9
9
9
9
9
9
9
9
9
9
9
9
9
9
9
9
9
9
9
9
9
9
9
9
9
9
9
9
9
9
9
9
9
9
9
9
9
9
9
9
9
9
9
9
9
9
9
9
9
9
9
9
9
9
9
9
9
9
9
9
9
9
9
9
9
9
9
9
9
9
9
9
9
9
9
9
9
9
9
9
9
9
9
9
9
9
9
9
9
9
9
9
9
9
9
9
9
9
9
9
9
9
9
9
9
9
9
9
9
9
9
9
9
9
9
9
9
9
9
9
9
9
9
9
9
9
9
9
9
9
9
9
9
9
9
9
9
9
9
9
9
9
9
9
9
9
9
9
9
9
9
9
9
9
9
9
9
9
9
9
9
9
9
9
9
9
9
9
9
9
9
9
9
9
9
9
9
9
9
9
9
9
9
9
9
9
9
9
9
9
9
9
9
9
9
9
9
9
9
9
9
9
9
9
9
9
9
9
9
9
9
9
9
9
9
9
9
9
9
9
9
9
9
9
9
9
9
9
9
9
9
9
9
9
9
9
9
9
9
9
9
9
9
9
9
9
9
9
9
9
9
9
9
9
9
9
9
9
9
9
9
9
9
9
9
9
9
9
9
9
9
9
9
9
9
9
9
9
9
9
9
9
9
9
9
9
9
9
9
9
9
9
9
9
9
9
9
9
9
9
9
9
9
9
9
9
9
9
9
9
9
9
9
9
9
9
9
9
9
9
9
9
9
9
9
9
9
9
9
9
9
9
9
9
9
9
9
9
9
9
9
9
9
9
9
9
9
9
9
9
9
9
9
9
9
9
9
9
9
9
9
9
9
9
9
9
9
9
9
9
9
9
9
9
9
9
9
9
9
9
9
9
9
9
9
9
9
9
9
9
9
9
9
9
9
9
9
9
9
9
9
9
9
9
9
9
9
9
9
9
9
9
9
9
9
9
9
9
9
9
9
9
9
9
9
9
9
9
9
9
9
9
9
9
9
9
9
9
9
9
9
9
9
9
9
9
9
9
9
9
9
9
9
9
9
9
9
9
9
9
9
9
9
9
9
9
9
9
9
9
9
9
9
9
9
9
9
9
9
9
9
9
9
9
9
9
9
9
9
9
9
9
9
9
9
9
9
9
9
9
9
9
9
9
9
9
9
9
9
9
9
9
9
9
9
9
9
9
9
9
9
9
9
9
9
9
9
9
9
9
9
9
9
9
9
9
9
9
9
9
9
9
9
9
9
9
9
9
9
9
9
9
9
9
9
9
9
9
9
9
9
9
9
9
9
9
9
9
9
9
9
9
9
9
9
9
9
9
9
9
9
9
9
9
9
9
9
9
9
9
9
9
9
9
9
9
9
9
9
9
9
9
9
9
9
9
9
9
9
9
9
9
9
9
9
9
9
9
9
9
9
9
9
9
9
9
9
9
9
9
9
9
9
9
9
9
9
9
9
9
9
9
9
9
9
9
9
9
9
9
9
9
9
9
9
9
9
9
9
9
9
9
9
9
9
9
9
9
9
9
9
9
9
9
9
9
9
9
9
9
9
9
9
9
9
9
9
9
9
9
9
9
9
9
9
9
9
9
9
9
9
9
9
9
9
9
9
9
9
9
9
9
9
9
9
9
9
9
9
9
9
9
9
9
9
9
9
9
9
9
9
9
9
9
9
9
9
9
9
9
9
9
9
9
9
9
9
9
9
9
9
9
9
9
9
9
9
9
9
9
9
9
9
9
9
9
9
9
9
9
9
9
9
9
9
9
9
9
9
9
9
9
9
9
9
9
9
9
9
9
9
9
9
9
9
9
9
9
9
9
9
9
9
9
9
9
9
9
9
9
9
9
9
9
9
9
9
9
9
9
9
9
9
9
9
9
9
9
9
9
9
9
9
9
9
9
9
9
9
9
9
9
9
9
9
9
9
9
9
9
9
9
9
9
9
9
9
9
9
9
9
9
9
9
9
9
9
9
9
9
9
9
9
9
9
9
9
9
9
9
9
9
9
9
9
9
9
9
9
9
9
9
9
9
9
9
9
9
9
9
9
9
9
9
9
9
9
9
9
9
9
9
9
9
9
9
9
9
9
9
9
9
9
9
9
9
9
9
9
9
9
9
9
9
9
9
9
9
9
9
9
9
9
9
9
9
9
9
9
9
9
9
9
9
9
9
9
9
9
9
9
9
9
9
9
9
9
9
9
9
9
9
9
9
9
9
9
9
9
9
9
9
9
9
9
9
9
9
9
9
9
9
9
9
9
9
9
9
9
9
9
9
9
9
9
9
9
9
9
9
9
9
9
9
9
9
9
9
9
9
9
9
9
9
9
9
9
9
9
9
9
9
9
9
9
9
9
9
9
9
9
9
9
9
9
9
9
9
9
9
9
9
9
9
9
9
9
9
9
9
9
9
9
9
9
9
9
CELL_DATA 1080
SCALARS region int 1
LOOKUP_TABLE default
1
1
1
1
1
1
-1
-1
-1
-1
-1
-1
-1
-1
-1
-1
-1
-1
-1
-1
-1
-1
-1
-1
-1
-1
-1
-1
-1
-1
-1
-1
-1
-1
-1
-1
-1
-1
-1
-1
-1
-1
-1
-1
-1
-1
-1
-1
-1
-1
1
1
1
1
1
1
1
1
1
1
1
1
1
1
1
1
1
1
1
1
1
1
1
1
1
1
1
1
1
1
1
1
1
1
1
1
1
1
1
1
-1
-1
-1
1
1
1
1
1
-1
-1
-1
-1
1
1
1
1
1
1
1
1
1
1
1
1
1
1
1
1
1
1
1
1
1
1
1
1
1
1
1
1
1
1
1
1
-1
-1
-1
-1
-1
-1
-1
1
1
1
1
1
1
1
1
1
-1
-1
-1
-1
-1
-1
-1
-1
1
1
1
1
1
1
1
1
-1
-1
-1
-1
1
1
1
1
-1
-1
-1
-1
-1
-1
-1
-1
-1
1
1
1
1
1
1
1
-1
-1
-1
-1
-1
1
1
1
1
1
1
1
-1
-1
-1
-1
-1
-1
-1
-1
1
1
1
1
-1
-1
-1
-1
-1
-1
-1
-1
1
1
1
1
1
1
1
1
-1
-1
-1
-1
-1
-1
-1
1
1
1
1
1
1
1
1
1
1
1
1
1
1
1
1
1
1
1
1
1
1
1
1
1
1
1
1
1
1
-1
-1
-1
-1
-1
-1
-1
1
1
1
1
1
-1
-1
-1
-1
-1
1
1
1
-1
-1
-1
-1
-1
-1
-1
-1
-1
-1
-1
-1
-1
-1
-1
-1
-1
-1
1
1
1
-1
-1
-1
-1
-1
-1
-1
-1
-1
-1
-1
-1
1
1
1
1
1
1
1
1
1
1
1
1
1
1
1
1
1
1
1
1
1
-1
-1
-1
1
1
1
1
1
1
1
1
-1
-1
-1
-1
-1
-1
1
1
1
1
-1
-1
-1
-1
-1
-1
-1
-1
1
1
1
1
1
1
1
-1
-1
-1
-1
-1
-1
-1
-1
-1
1
1
1
1
1
1
1
1
1
1
1
1
1
1
1
1
1
1
1
1
1
-1
-1
-1
-1
-1
-1
-1
-1
-1
-1
-1
-1
-1
-1
-1
-1
-1
-1
1
1
1
1
1
1
1
1
-1
-1
-1
-1
-1
-1
-1
-1
1
1
1
1
1
1
1
1
1
1
1
1
-1
-1
-1
-1
-1
-1
-1
-1
1
1
1
1
-1
-1
-1
-1
-1
-1
-1
-1
-1
-1
1
1
1
1
1
1
1
1
-1
-1
-1
-1
1
1
1
1
1
1
1
1
1
1
1
1
1
1
1
1
-1
-1
-1
-1
-1
-1
-1
-1
-1
-1
-1
-1
-1
-1
1
1
1
1
1
1
1
1
-1
-1
-1
-1
-1
-1
-1
-1
1
1
1
1
1
1
1
1
1
1
1
1
1
1
1
1
1
1
1
-1
-1
-1
-1
-1
-1
-1
-1
-1
1
1
1
-1
-1
-1
-1
-1
-1
1
1
1
-1
-1
-1
-1
-1
1
1
1
1
1
1
1
1
1
1
1
1
-1
-1
-1
-1
1
1
1
1
1
1
-1
-1
-1
1
1
1
1
1
1
1
1
1
1
1
1
-1
-1
-1
-1
-1
-1
-1
-1
-1
-1
-1
-1
-1
-1
-1
-1
-1
-1
-1
1
1
1
1
1
1
1
-1
-1
-1
-1
-1
1
1
1
1
1
-1
-1
-1
1
1
1
1
1
1
1
1
1
1
1
-1
-1
-1
-1
-1
-1
-1
-1
1
1
1
1
-1
-1
-1
-1
-1
-1
-1
-1
-1
-1
-1
-1
-1
-1
1
1
1
1
1
1
1
1
-1
-1
-1
-1
1
1
1
1
1
1
1
1
-1
-1
-1
1
1
1
1
1
1
1
1
1
1
1
1
-1
-1
-1
-1
-1
-1
-1
-1
-1
-1
-1
-1
-1
-1
-1
-1
-1
-1
-1
-1
-1
1
1
1
1
1
1
1
-1
-1
-1
-1
-1
1
1
1
1
1
-1
-1
-1
1
1
1
1
1
1
1
1
1
1
1
1
1
1
1
1
1
1
1
1
1
1
1
1
-1
-1
-1
-1
1
1
1
-1
-1
-1
-1
-1
-1
-1
-1
-1
-1
-1
-1
-1
-1
-1
-1
-1
-1
-1
-1
-1
-1
-1
1
1
1
-1
-1
-1
-1
-1
1
1
1
1
1
1
1
1
1
1
1
1
-1
-1
-1
-1
1
1
1
1
1
1
1
1
1
1
1
1
1
1
1
1
1
-1
-1
-1
1
1
1
1
1
1
1
1
1
1
1
1
-1
-1
-1
-1
-1
-1
-1
-1
-1
-1
-1
-1
-1
1
1
1
1
1
1
1
-1
-1
-1
-1
-1
1
1
1
-1
-1
-1
-1
-1
1
1
1
-1
-1
-1
-1
-1
1
1
1
1
1
1
1
-1
-1
-1
-1
-1
-1
-1
-1
-1
1
1
1
1
1
1
1
-1
-1
-1
-1
-1
-1
-1
-1
-1
1
1
1
1
1
-1
-1
-1
1
1
1
1
1
1
1
1
1
1
1
1
1
1
1
1
1
1
1
1
1
1
1
1
1
1
1
1
1
-1
-1
-1
-1
1
1
1
1
1
-1
-1
-1
-1
-1
-1
1
1
1
1
1
1
1
1
1
1
1
1
1
1
-1
-1
-1
-1
-1
-1
-1
1
1
1
1
1
1
1
1
1
1
1
1
1
1
1
1
1
-1
-1
-1
-1
1
1
1
1
1
1
1
1
1
1
1
1
1
1
1
1
1
1
1
1
1
1
1
1
1
1
1
1
1
1
1
1
1
1
1
1
